G04 EasyPC Gerber Version 20.0.2 Build 4112 *
%FSLAX35Y35*%
%MOIN*%
%ADD15C,0.00500*%
%ADD14C,0.10000*%
X0Y0D02*
D02*
D14*
X26079Y35055D03*
X27194Y142856D03*
X36156Y36423D03*
X40002Y49398D03*
Y139398D03*
X47286Y12350D03*
Y171838D03*
X47733Y35055D03*
X50002Y49398D03*
Y139398D03*
X60002Y49398D03*
Y139398D03*
X63786Y160600D03*
X66656Y12600D03*
Y27478D03*
X70002Y49398D03*
Y139398D03*
X73786Y160600D03*
X76656Y27478D03*
X80002Y49398D03*
Y139398D03*
X83786Y160600D03*
X86656Y27478D03*
X88656Y38850D03*
X90002Y49398D03*
Y139398D03*
X93786Y160600D03*
X100002Y49398D03*
Y139398D03*
X103786Y160600D03*
X110002Y49398D03*
Y139398D03*
X110406Y12600D03*
X110683Y27850D03*
X113786Y160600D03*
X117536Y152350D03*
X120002Y49398D03*
Y139398D03*
X120683Y27850D03*
X130002Y49398D03*
Y139398D03*
X130036Y163850D03*
X130683Y27850D03*
X130786Y153350D03*
X131906Y38850D03*
X140002Y49398D03*
Y139398D03*
X141033Y163137D03*
X142536Y152850D03*
X148579Y27600D03*
X150002Y49398D03*
Y139398D03*
X157536Y156850D03*
X160002Y49398D03*
Y139398D03*
X170002Y49398D03*
Y139398D03*
X170036Y163850D03*
X170233Y27600D03*
X170786Y153350D03*
X180002Y49398D03*
Y139398D03*
X184120Y158469D03*
X189906Y35100D03*
X190002Y49398D03*
Y139398D03*
X194120Y158469D03*
Y169100D03*
X200002Y49398D03*
Y113350D03*
Y139398D03*
X204120Y158469D03*
X210002Y49398D03*
Y139398D03*
X210786Y15350D03*
Y25350D03*
X214120Y158469D03*
X220002Y49398D03*
Y139398D03*
X220786Y15350D03*
Y25350D03*
X230002Y49398D03*
Y139398D03*
X230786Y15350D03*
Y25350D03*
X244046Y167240D03*
X256023Y40220D03*
X263731Y167240D03*
X275708Y40220D03*
X283417Y167240D03*
X294684Y146126D03*
X295393Y40220D03*
X314684Y146126D03*
X335278Y12350D03*
Y171838D03*
D02*
D15*
X36079Y40992D02*
Y44742D01*
X39204*
X38579Y42867D02*
X36079D01*
X37194Y148793D02*
X38756Y152543D01*
X40319Y148793*
X37819Y150356D02*
X39694D01*
X46156Y42361D02*
X47719Y46111D01*
X49281Y42361*
X46781Y43923D02*
X48656D01*
X50002Y55335D02*
X51564Y59085D01*
X53127Y55335*
X50627Y56898D02*
X52502D01*
X50002Y145335D02*
X51564Y149085D01*
X53127Y145335*
X50627Y146898D02*
X52502D01*
X59473Y19850D02*
X60411D01*
Y19537*
X60098Y18913*
X59786Y18600*
X59161Y18287*
X58536*
X57911Y18600*
X57598Y18913*
X57286Y19537*
Y20787*
X57598Y21413*
X57911Y21725*
X58536Y22037*
X59161*
X59786Y21725*
X60098Y21413*
X60411Y20787*
X59473Y179338D02*
X60411D01*
Y179026*
X60098Y178401*
X59786Y178088*
X59161Y177776*
X58536*
X57911Y178088*
X57598Y178401*
X57286Y179026*
Y180276*
X57598Y180901*
X57911Y181213*
X58536Y181526*
X59161*
X59786Y181213*
X60098Y180901*
X60411Y180276*
X57733Y40992D02*
Y44742D01*
X60858*
X60233Y42867D02*
X57733D01*
X60002Y55335D02*
X61564Y59085D01*
X63127Y55335*
X60627Y56898D02*
X62502D01*
X60002Y145335D02*
X61564Y149085D01*
X63127Y145335*
X60627Y146898D02*
X62502D01*
X70002Y55335D02*
X71564Y59085D01*
X73127Y55335*
X70627Y56898D02*
X72502D01*
X70002Y145335D02*
X71564Y149085D01*
X73127Y145335*
X70627Y146898D02*
X72502D01*
X73786Y166537D02*
X75348Y170287D01*
X76911Y166537*
X74411Y168100D02*
X76286D01*
X76656Y18537D02*
X78219Y22287D01*
X79781Y18537*
X77281Y20100D02*
X79156D01*
X76656Y33416D02*
X78219Y37166D01*
X79781Y33416*
X77281Y34978D02*
X79156D01*
X80002Y55335D02*
X81564Y59085D01*
X83127Y55335*
X80627Y56898D02*
X82502D01*
X80002Y145335D02*
X81564Y149085D01*
X83127Y145335*
X80627Y146898D02*
X82502D01*
X83786Y166537D02*
X85348Y170287D01*
X86911Y166537*
X84411Y168100D02*
X86286D01*
X86656Y33416D02*
X88219Y37166D01*
X89781Y33416*
X87281Y34978D02*
X89156D01*
X90002Y55335D02*
X91564Y59085D01*
X93127Y55335*
X90627Y56898D02*
X92502D01*
X90002Y145335D02*
X91564Y149085D01*
X93127Y145335*
X90627Y146898D02*
X92502D01*
X93786Y166537D02*
X95348Y170287D01*
X96911Y166537*
X94411Y168100D02*
X96286D01*
X96656Y33416D02*
X98219Y37166D01*
X99781Y33416*
X97281Y34978D02*
X99156D01*
X98656Y44787D02*
X100219Y48537D01*
X101781Y44787*
X99281Y46350D02*
X101156D01*
X100002Y55335D02*
X101564Y59085D01*
X103127Y55335*
X100627Y56898D02*
X102502D01*
X100002Y145335D02*
X101564Y149085D01*
X103127Y145335*
X100627Y146898D02*
X102502D01*
X103786Y166537D02*
X105348Y170287D01*
X106911Y166537*
X104411Y168100D02*
X106286D01*
X110002Y55335D02*
X111564Y59085D01*
X113127Y55335*
X110627Y56898D02*
X112502D01*
X110002Y145335D02*
X111564Y149085D01*
X113127Y145335*
X110627Y146898D02*
X112502D01*
X113786Y166537D02*
X115348Y170287D01*
X116911Y166537*
X114411Y168100D02*
X116286D01*
X120002Y55335D02*
X121564Y59085D01*
X123127Y55335*
X120627Y56898D02*
X122502D01*
X120002Y145335D02*
X121564Y149085D01*
X123127Y145335*
X120627Y146898D02*
X122502D01*
X120406Y18537D02*
X121969Y22287D01*
X123531Y18537*
X121031Y20100D02*
X122906D01*
X120683Y33787D02*
X122246Y37537D01*
X123809Y33787*
X121309Y35350D02*
X123183D01*
X123786Y166537D02*
X125348Y170287D01*
X126911Y166537*
X124411Y168100D02*
X126286D01*
X127536Y158287D02*
X129098Y162037D01*
X130661Y158287*
X128161Y159850D02*
X130036D01*
X130002Y55335D02*
X131564Y59085D01*
X133127Y55335*
X130627Y56898D02*
X132502D01*
X130002Y145335D02*
X131564Y149085D01*
X133127Y145335*
X130627Y146898D02*
X132502D01*
X130683Y33787D02*
X132246Y37537D01*
X133809Y33787*
X131309Y35350D02*
X133183D01*
X140002Y55335D02*
X141564Y59085D01*
X143127Y55335*
X140627Y56898D02*
X142502D01*
X140002Y145335D02*
X141564Y149085D01*
X143127Y145335*
X140627Y146898D02*
X142502D01*
X140036Y169787D02*
X141598Y173537D01*
X143161Y169787*
X140661Y171350D02*
X142536D01*
X140683Y33787D02*
X142246Y37537D01*
X143809Y33787*
X141309Y35350D02*
X143183D01*
X140786Y159287D02*
X142348Y163037D01*
X143911Y159287*
X141411Y160850D02*
X143286D01*
X141906Y44787D02*
X143469Y48537D01*
X145031Y44787*
X142531Y46350D02*
X144406D01*
X150002Y55335D02*
X151564Y59085D01*
X153127Y55335*
X150627Y56898D02*
X152502D01*
X150002Y145335D02*
X151564Y149085D01*
X153127Y145335*
X150627Y146898D02*
X152502D01*
X151033Y169074D02*
X152596Y172824D01*
X154159Y169074*
X151659Y170637D02*
X153533D01*
X152536Y158787D02*
X154098Y162537D01*
X155661Y158787*
X153161Y160350D02*
X155036D01*
X158579Y33537D02*
Y37287D01*
X161704*
X161079Y35413D02*
X158579D01*
X160002Y55335D02*
X161564Y59085D01*
X163127Y55335*
X160627Y56898D02*
X162502D01*
X160002Y145335D02*
X161564Y149085D01*
X163127Y145335*
X160627Y146898D02*
X162502D01*
X167536Y162787D02*
X169098Y166537D01*
X170661Y162787*
X168161Y164350D02*
X170036D01*
X170002Y55335D02*
X171564Y59085D01*
X173127Y55335*
X170627Y56898D02*
X172502D01*
X170002Y145335D02*
X171564Y149085D01*
X173127Y145335*
X170627Y146898D02*
X172502D01*
X180002Y55335D02*
X181564Y59085D01*
X183127Y55335*
X180627Y56898D02*
X182502D01*
X180002Y145335D02*
X181564Y149085D01*
X183127Y145335*
X180627Y146898D02*
X182502D01*
X180036Y169787D02*
X181598Y173537D01*
X183161Y169787*
X180661Y171350D02*
X182536D01*
X180233Y33537D02*
Y37287D01*
X183358*
X182733Y35413D02*
X180233D01*
X180786Y159287D02*
X182348Y163037D01*
X183911Y159287*
X181411Y160850D02*
X183286D01*
X190002Y55335D02*
X191564Y59085D01*
X193127Y55335*
X190627Y56898D02*
X192502D01*
X190002Y145335D02*
X191564Y149085D01*
X193127Y145335*
X190627Y146898D02*
X192502D01*
X194120Y164406D02*
X195682Y168156D01*
X197245Y164406*
X194745Y165969D02*
X196620D01*
X199906Y41037D02*
X201469Y44787D01*
X203031Y41037*
X200531Y42600D02*
X202406D01*
X200002Y55335D02*
X201564Y59085D01*
X203127Y55335*
X200627Y56898D02*
X202502D01*
X200002Y145335D02*
X201564Y149085D01*
X203127Y145335*
X200627Y146898D02*
X202502D01*
X204120Y164406D02*
X205682Y168156D01*
X207245Y164406*
X204745Y165969D02*
X206620D01*
X204120Y175037D02*
X205682Y178787D01*
X207245Y175037*
X204745Y176600D02*
X206620D01*
X210002Y55335D02*
X211564Y59085D01*
X213127Y55335*
X210627Y56898D02*
X212502D01*
X210002Y119287D02*
X211564Y123037D01*
X213127Y119287*
X210627Y120850D02*
X212502D01*
X210002Y145335D02*
X211564Y149085D01*
X213127Y145335*
X210627Y146898D02*
X212502D01*
X214120Y164406D02*
X215682Y168156D01*
X217245Y164406*
X214745Y165969D02*
X216620D01*
X220002Y55335D02*
X221564Y59085D01*
X223127Y55335*
X220627Y56898D02*
X222502D01*
X220002Y145335D02*
X221564Y149085D01*
X223127Y145335*
X220627Y146898D02*
X222502D01*
X220786Y21287D02*
X222348Y25037D01*
X223911Y21287*
X221411Y22850D02*
X223286D01*
X220786Y31287D02*
X222348Y35037D01*
X223911Y31287*
X221411Y32850D02*
X223286D01*
X224120Y164406D02*
X225682Y168156D01*
X227245Y164406*
X224745Y165969D02*
X226620D01*
X230002Y55335D02*
X231564Y59085D01*
X233127Y55335*
X230627Y56898D02*
X232502D01*
X230002Y145335D02*
X231564Y149085D01*
X233127Y145335*
X230627Y146898D02*
X232502D01*
X230786Y21287D02*
X232348Y25037D01*
X233911Y21287*
X231411Y22850D02*
X233286D01*
X230786Y31287D02*
X232348Y35037D01*
X233911Y31287*
X231411Y32850D02*
X233286D01*
X240002Y55335D02*
X241564Y59085D01*
X243127Y55335*
X240627Y56898D02*
X242502D01*
X240002Y145335D02*
X241564Y149085D01*
X243127Y145335*
X240627Y146898D02*
X242502D01*
X240786Y21287D02*
X242348Y25037D01*
X243911Y21287*
X241411Y22850D02*
X243286D01*
X240786Y31287D02*
X242348Y35037D01*
X243911Y31287*
X241411Y32850D02*
X243286D01*
X254984Y173177D02*
X256234D01*
X255609D02*
Y176927D01*
X254984D02*
X256234D01*
X266023Y46157D02*
Y49907D01*
X267898*
X268523Y49595*
X268835Y49283*
X269148Y48657*
Y47407*
X268835Y46783*
X268523Y46470*
X267898Y46157*
X266023*
X274669Y173177D02*
X275919D01*
X275294D02*
Y176927D01*
X274669D02*
X275919D01*
X285708Y46157D02*
Y49907D01*
X287583*
X288208Y49595*
X288520Y49283*
X288833Y48657*
Y47407*
X288520Y46783*
X288208Y46470*
X287583Y46157*
X285708*
X294354Y173177D02*
X295604D01*
X294979D02*
Y176927D01*
X294354D02*
X295604D01*
X304684Y152063D02*
Y155813D01*
X306559*
X307184Y155501*
X307497Y155188*
X307809Y154563*
Y153313*
X307497Y152688*
X307184Y152376*
X306559Y152063*
X304684*
X305393Y46157D02*
Y49907D01*
X307268*
X307893Y49595*
X308206Y49283*
X308518Y48657*
Y47407*
X308206Y46783*
X307893Y46470*
X307268Y46157*
X305393*
X324684Y152063D02*
Y155813D01*
Y153938D02*
X327809D01*
Y152063D02*
Y155813D01*
X347465Y19850D02*
X348403D01*
Y19537*
X348091Y18913*
X347778Y18600*
X347153Y18287*
X346528*
X345903Y18600*
X345591Y18913*
X345278Y19537*
Y20787*
X345591Y21413*
X345903Y21725*
X346528Y22037*
X347153*
X347778Y21725*
X348091Y21413*
X348403Y20787*
X347465Y179338D02*
X348403D01*
Y179026*
X348091Y178401*
X347778Y178088*
X347153Y177776*
X346528*
X345903Y178088*
X345591Y178401*
X345278Y179026*
Y180276*
X345591Y180901*
X345903Y181213*
X346528Y181526*
X347153*
X347778Y181213*
X348091Y180901*
X348403Y180276*
X0Y0D02*
M02*
