G04 EasyPC Gerber Version 20.0.2 Build 4112 *
%FSLAX35Y35*%
%MOIN*%
%AMT79*0 Octagon Pad at angle 0*4,1,8,-0.01549,-0.03740,0.01549,-0.03740,0.03740,-0.01549,0.03740,0.01549,0.01549,0.03740,-0.01549,0.03740,-0.03740,0.01549,-0.03740,-0.01549,-0.01549,-0.03740,0*%
%ADD79T79*%
%AMT78*0 Octagon Pad at angle 0*4,1,8,-0.01794,-0.04331,0.01794,-0.04331,0.04331,-0.01794,0.04331,0.01794,0.01794,0.04331,-0.01794,0.04331,-0.04331,0.01794,-0.04331,-0.01794,-0.01794,-0.04331,0*%
%ADD78T78*%
%ADD18R,0.07874X0.07874*%
%ADD71R,0.08268X0.08268*%
%ADD75R,0.09449X0.09449*%
%ADD76R,0.13386X0.13386*%
%ADD80C,0.02559*%
%ADD29C,0.03937*%
%ADD19C,0.07874*%
%ADD20C,0.08268*%
%ADD25C,0.09449*%
%ADD77C,0.13386*%
%ADD74C,0.14173*%
X0Y0D02*
D02*
D18*
X230786Y25350D03*
D02*
D19*
X26079Y35055D03*
X47733D03*
X130036Y163850D03*
X130786Y153350D03*
X148579Y27600D03*
X170036Y163850D03*
X170233Y27600D03*
X170786Y153350D03*
X210786Y15350D03*
Y25350D03*
X220786Y15350D03*
Y25350D03*
X230786Y15350D03*
D02*
D71*
X63786Y160600D03*
X66656Y27478D03*
X110683Y27850D03*
X214120Y158469D03*
X230002Y139398D03*
D02*
D20*
X40002Y49398D03*
Y139398D03*
X50002Y49398D03*
Y139398D03*
X60002Y49398D03*
Y139398D03*
X70002Y49398D03*
Y139398D03*
X73786Y160600D03*
X76656Y27478D03*
X80002Y49398D03*
Y139398D03*
X83786Y160600D03*
X86656Y27478D03*
X90002Y49398D03*
Y139398D03*
X93786Y160600D03*
X100002Y49398D03*
Y139398D03*
X103786Y160600D03*
X110002Y49398D03*
Y139398D03*
X113786Y160600D03*
X120002Y49398D03*
Y139398D03*
X120683Y27850D03*
X130002Y49398D03*
Y139398D03*
X130683Y27850D03*
X140002Y49398D03*
Y139398D03*
X150002Y49398D03*
Y139398D03*
X160002Y49398D03*
Y139398D03*
X170002Y49398D03*
Y139398D03*
X180002Y49398D03*
Y139398D03*
X184120Y158469D03*
X190002Y49398D03*
Y139398D03*
X194120Y158469D03*
X200002Y49398D03*
Y139398D03*
X204120Y158469D03*
X210002Y49398D03*
Y139398D03*
X220002Y49398D03*
Y139398D03*
X230002Y49398D03*
D02*
D25*
X256023Y40220D03*
X275708D03*
X294684Y146126D03*
X295393Y40220D03*
D02*
D29*
X88656Y38850D02*
X131906D01*
X200002Y49398D02*
Y59696D01*
X204406Y64100*
X225156*
X229906Y59350*
X200002Y113350D02*
X229906Y83446D01*
Y59350*
X200002Y139398D02*
Y113350D01*
X229906Y59350D02*
Y50744D01*
X230002Y50648*
Y49398*
D02*
D74*
X47286Y12350D03*
Y171838D03*
X335278Y12350D03*
Y171838D03*
D02*
D75*
X314684Y146126D03*
D02*
D76*
X244046Y167240D03*
D02*
D77*
X263731D03*
X283417D03*
D02*
D78*
X27194Y142856D03*
X36156Y36423D03*
X66656Y12600D03*
X88656Y38850D03*
X110406Y12600D03*
X131906Y38850D03*
X141033Y163137D03*
X142536Y152850D03*
X157536Y156850D03*
X189906Y35100D03*
X194120Y169100D03*
X200002Y113350D03*
D02*
D79*
X117536Y152350D03*
D02*
D80*
X36156Y36423D02*
Y37350D01*
X40406Y41600*
X86656*
X88656Y39600*
Y38850*
X66656Y12600D02*
X110406D01*
X176156*
X189906Y26350*
Y35100*
X117536Y152350D02*
X36688D01*
X27194Y142856*
X157536Y156850D02*
X146536D01*
X142536Y152850*
X190002Y49398D02*
Y139398D01*
X194120Y169100D02*
X178286D01*
X175786Y171600*
X158786*
X156286Y169100*
X146997*
X141033Y163137*
X0Y0D02*
M02*
