G04 EasyPC Gerber Version 20.0.2 Build 4112 *
%FSLAX35Y35*%
%MOIN*%
%ADD93R,0.08474X0.08474*%
%ADD88R,0.08868X0.08868*%
%ADD86R,0.10049X0.10049*%
%ADD90R,0.13986X0.13986*%
%ADD92C,0.08474*%
%ADD89C,0.08868*%
%ADD87C,0.10049*%
%ADD91C,0.13986*%
%ADD85C,0.14773*%
%AMT95*0 Octagon Pad at angle 0*4,1,8,-0.01673,-0.04040,0.01673,-0.04040,0.04040,-0.01673,0.04040,0.01673,0.01673,0.04040,-0.01673,0.04040,-0.04040,0.01673,-0.04040,-0.01673,-0.01673,-0.04040,0*%
%ADD95T95*%
%AMT94*0 Octagon Pad at angle 0*4,1,8,-0.01917,-0.04631,0.01917,-0.04631,0.04631,-0.01917,0.04631,0.01917,0.01917,0.04631,-0.01917,0.04631,-0.04631,0.01917,-0.04631,-0.01917,-0.01917,-0.04631,0*%
%ADD94T94*%
X0Y0D02*
D02*
D85*
X47286Y12350D03*
Y171838D03*
X335278Y12350D03*
Y171838D03*
D02*
D86*
X314684Y146126D03*
D02*
D87*
X256023Y40220D03*
X275708D03*
X294684Y146126D03*
X295393Y40220D03*
D02*
D88*
X63786Y160600D03*
X66656Y27478D03*
X110683Y27850D03*
X214120Y158469D03*
X230002Y139398D03*
D02*
D89*
X40002Y49398D03*
Y139398D03*
X50002Y49398D03*
Y139398D03*
X60002Y49398D03*
Y139398D03*
X70002Y49398D03*
Y139398D03*
X73786Y160600D03*
X76656Y27478D03*
X80002Y49398D03*
Y139398D03*
X83786Y160600D03*
X86656Y27478D03*
X90002Y49398D03*
Y139398D03*
X93786Y160600D03*
X100002Y49398D03*
Y139398D03*
X103786Y160600D03*
X110002Y49398D03*
Y139398D03*
X113786Y160600D03*
X120002Y49398D03*
Y139398D03*
X120683Y27850D03*
X130002Y49398D03*
Y139398D03*
X130683Y27850D03*
X140002Y49398D03*
Y139398D03*
X150002Y49398D03*
Y139398D03*
X160002Y49398D03*
Y139398D03*
X170002Y49398D03*
Y139398D03*
X180002Y49398D03*
Y139398D03*
X184120Y158469D03*
X190002Y49398D03*
Y139398D03*
X194120Y158469D03*
X200002Y49398D03*
Y139398D03*
X204120Y158469D03*
X210002Y49398D03*
Y139398D03*
X220002Y49398D03*
Y139398D03*
X230002Y49398D03*
D02*
D90*
X244046Y167240D03*
D02*
D91*
X263731D03*
X283417D03*
D02*
D92*
X26079Y35055D03*
X47733D03*
X130036Y163850D03*
X130786Y153350D03*
X148579Y27600D03*
X170036Y163850D03*
X170233Y27600D03*
X170786Y153350D03*
X210786Y15350D03*
Y25350D03*
X220786Y15350D03*
Y25350D03*
X230786Y15350D03*
D02*
D93*
Y25350D03*
D02*
D94*
X27194Y142856D03*
X36156Y36423D03*
X66656Y12600D03*
X88656Y38850D03*
X110406Y12600D03*
X131906Y38850D03*
X141033Y163137D03*
X142536Y152850D03*
X157536Y156850D03*
X189906Y35100D03*
X194120Y169100D03*
X200002Y113350D03*
D02*
D95*
X117536Y152350D03*
X0Y0D02*
M02*
