G04 EasyPC Gerber Version 20.0.2 Build 4112 *
%FSLAX35Y35*%
%MOIN*%
%ADD83C,0.00197*%
%ADD15C,0.00500*%
%ADD82C,0.00984*%
%ADD81C,0.01181*%
X0Y0D02*
D02*
D15*
X38094Y149332D02*
X37782Y149020D01*
X37157Y148707*
X36219*
X35594Y149020*
X35282Y149332*
X34969Y149957*
Y151207*
X35282Y151832*
X35594Y152145*
X36219Y152457*
X37157*
X37782Y152145*
X38094Y151832*
X39969Y149957D02*
Y151207D01*
X40282Y151832*
X40594Y152145*
X41219Y152457*
X41844*
X42469Y152145*
X42782Y151832*
X43094Y151207*
Y149957*
X42782Y149332*
X42469Y149020*
X41844Y148707*
X41219*
X40594Y149020*
X40282Y149332*
X39969Y149957*
X44969Y148707D02*
Y152457D01*
X48094Y148707*
Y152457*
X49969Y148707D02*
Y152457D01*
X53094Y148707*
Y152457*
X57469Y148707D02*
X54969D01*
X57157Y150895*
X57469Y151520*
X57157Y152145*
X56532Y152457*
X55594*
X54969Y152145*
X40304Y29387D02*
X40617Y29699D01*
X41242Y30012*
X42179*
X42804Y29699*
X43117Y29387*
X43429Y28762*
Y27512*
X43117Y26887*
X42804Y26574*
X42179Y26262*
X41242*
X40617Y26574*
X40304Y26887*
X37804Y30012D02*
X36554D01*
X37179D02*
Y26262D01*
X37804Y26887*
X56656Y37478D02*
X96656D01*
Y18728*
X59156*
X56656Y21228*
Y37478*
X57152Y167234D02*
X120420D01*
Y153966*
X59652*
X57152Y156466*
Y167234*
X60535Y37983D02*
Y41733D01*
X62723*
X63348Y41420*
X63661Y40795*
X63348Y40170*
X62723Y39858*
X60535*
X62723D02*
X63661Y37983D01*
X67098D02*
Y41733D01*
X65535Y39233*
X68035*
X62536Y170537D02*
X65036D01*
X72786D02*
X75286D01*
X74036Y169287D02*
Y171787D01*
X85598Y168350D02*
X81848D01*
Y170537*
X82161Y171163*
X82786Y171475*
X83411Y171163*
X83723Y170537*
Y168350*
Y170537D02*
X85598Y171475D01*
X84661Y173350D02*
X85286Y173663D01*
X85598Y174287*
Y175537*
X85286Y176163*
X84661Y176475*
X84036Y176163*
X83723Y175537*
Y174287*
X83411Y173663*
X82786Y173350*
X82161Y173663*
X81848Y174287*
Y175537*
X82161Y176163*
X82786Y176475*
X95848Y168350D02*
X92098D01*
Y170225*
X92411Y170850*
X92723Y171163*
X93348Y171475*
X94598*
X95223Y171163*
X95536Y170850*
X95848Y170225*
Y168350*
X95223Y176475D02*
X95536Y176163D01*
X95848Y175537*
Y174600*
X95536Y173975*
X95223Y173663*
X94598Y173350*
X93348*
X92723Y173663*
X92411Y173975*
X92098Y174600*
Y175537*
X92411Y176163*
X92723Y176475*
X100683Y37850D02*
X140683D01*
Y19100*
X103183*
X100683Y21600*
Y37850*
X104911Y166804D02*
X105536Y167117D01*
X105848Y167742*
Y168992*
X105536Y169617*
X104911Y169930*
X104286Y169617*
X103973Y168992*
Y167742*
X103661Y167117*
X103036Y166804*
X102411Y167117*
X102098Y167742*
Y168992*
X102411Y169617*
X103036Y169930*
X105848Y171804D02*
X102098D01*
Y173680*
X102411Y174304*
X102723Y174617*
X103348Y174930*
X104598*
X105223Y174617*
X105536Y174304*
X105848Y173680*
Y171804*
Y176804D02*
X102098Y178367D01*
X105848Y179930*
X104286Y177430D02*
Y179304D01*
X115161Y167115D02*
X115786Y167428D01*
X116098Y168053*
Y169303*
X115786Y169928*
X115161Y170241*
X114536Y169928*
X114223Y169303*
Y168053*
X113911Y167428*
X113286Y167115*
X112661Y167428*
X112348Y168053*
Y169303*
X112661Y169928*
X113286Y170241*
X115473Y175241D02*
X115786Y174928D01*
X116098Y174303*
Y173365*
X115786Y172741*
X115473Y172428*
X114848Y172115*
X113598*
X112973Y172428*
X112661Y172741*
X112348Y173365*
Y174303*
X112661Y174928*
X112973Y175241*
X112348Y177115D02*
X116098D01*
Y180241*
X135036Y163850D02*
X140036D01*
X135786Y153350D02*
X140786D01*
X140036Y158850D02*
Y168850D01*
X160036*
Y158850*
X140036*
X140786Y148350D02*
Y158350D01*
X160786*
Y148350*
X140786*
X142708Y34748D02*
Y38498D01*
X144895*
X145520Y38186*
X145833Y37561*
X145520Y36936*
X144895Y36623*
X142708*
X144895D02*
X145833Y34748D01*
X148020Y35061D02*
X148645Y34748D01*
X149270*
X149895Y35061*
X150208Y35686*
X149895Y36311*
X149270Y36623*
X148645*
X149270D02*
X149895Y36936D01*
X150208Y37561*
X149895Y38186*
X149270Y38498*
X148645*
X148020Y38186*
X146286Y172287D02*
Y176037D01*
X148473*
X149098Y175725*
X149411Y175100*
X149098Y174475*
X148473Y174163*
X146286*
X148473D02*
X149411Y172287D01*
X151911D02*
X153161D01*
X152536D02*
Y176037D01*
X151911Y175413*
X147036Y161787D02*
Y165537D01*
X149223*
X149848Y165225*
X150161Y164600*
X149848Y163975*
X149223Y163663*
X147036*
X149223D02*
X150161Y161787D01*
X154536D02*
X152036D01*
X154223Y163975*
X154536Y164600*
X154223Y165225*
X153598Y165537*
X152661*
X152036Y165225*
X160036Y163850D02*
X165036D01*
X160786Y153350D02*
X165786D01*
X159675Y28080D02*
X159987Y28393D01*
X160613Y28706*
X161550*
X162175Y28393*
X162487Y28080*
X162800Y27456*
Y26206*
X162487Y25580*
X162175Y25268*
X161550Y24956*
X160613*
X159987Y25268*
X159675Y25580*
X155300Y28706D02*
X157800D01*
X155613Y26518*
X155300Y25893*
X155613Y25268*
X156237Y24956*
X157175*
X157800Y25268*
X184161Y165850D02*
X184786Y166163D01*
X185098Y166787*
Y168037*
X184786Y168663*
X184161Y168975*
X183536Y168663*
X183223Y168037*
Y166787*
X182911Y166163*
X182286Y165850*
X181661Y166163*
X181348Y166787*
Y168037*
X181661Y168663*
X182286Y168975*
X185098Y170850D02*
X181348D01*
Y172725*
X181661Y173350*
X181973Y173663*
X182598Y173975*
X183848*
X184473Y173663*
X184786Y173350*
X185098Y172725*
Y170850*
Y175850D02*
X181348Y177413D01*
X185098Y178975*
X183536Y176475D02*
Y178350D01*
X206036Y165748D02*
X206348Y166373D01*
Y166998*
X206036Y167623*
X205411Y167936*
X204786Y167623*
X204473Y166998*
Y166373*
Y166998D02*
X204161Y167623D01*
X203536Y167936*
X202911Y167623*
X202598Y166998*
Y166373*
X202911Y165748*
X202598Y170436D02*
X206348Y171998D01*
X202598Y173561*
X206036Y175748D02*
X206348Y176373D01*
Y176998*
X206036Y177623*
X205411Y177936*
X204786Y177623*
X204473Y176998*
Y176373*
Y176998D02*
X204161Y177623D01*
X203536Y177936*
X202911Y177623*
X202598Y176998*
Y176373*
X202911Y175748*
X213559Y37334D02*
Y40146D01*
X213246Y40772*
X212622Y41084*
X211372*
X210746Y40772*
X210434Y40146*
Y37334*
X206059Y41084D02*
X208559D01*
X206372Y38896*
X206059Y38272*
X206372Y37646*
X206996Y37334*
X207934*
X208559Y37646*
X215286Y167037D02*
Y167975D01*
X215598*
X216223Y167663*
X216536Y167350*
X216848Y166725*
Y166100*
X216536Y165475*
X216223Y165163*
X215598Y164850*
X214348*
X213723Y165163*
X213411Y165475*
X213098Y166100*
Y166725*
X213411Y167350*
X213723Y167663*
X214348Y167975*
X216848Y169850D02*
X213098D01*
X216848Y172975*
X213098*
X216848Y174850D02*
X213098D01*
Y176725*
X213411Y177350*
X213723Y177663*
X214348Y177975*
X215598*
X216223Y177663*
X216536Y177350*
X216848Y176725*
Y174850*
X220754Y151835D02*
X177861D01*
Y165103*
X218254*
X220754Y162603*
Y151835*
X225861Y150624D02*
X226173Y150936D01*
X226798Y151249*
X227736*
X228361Y150936*
X228673Y150624*
X228986Y149999*
Y148749*
X228673Y148124*
X228361Y147811*
X227736Y147499*
X226798*
X226173Y147811*
X225861Y148124*
X223986Y149999D02*
Y148749D01*
X223673Y148124*
X223361Y147811*
X222736Y147499*
X222111*
X221486Y147811*
X221173Y148124*
X220861Y148749*
Y149999*
X221173Y150624*
X221486Y150936*
X222111Y151249*
X222736*
X223361Y150936*
X223673Y150624*
X223986Y149999*
X218986Y151249D02*
Y147499D01*
X215861Y151249*
Y147499*
X213986Y151249D02*
Y147499D01*
X210861Y151249*
Y147499*
X208673Y150936D02*
X208048Y151249D01*
X207423*
X206798Y150936*
X206486Y150311*
X206798Y149686*
X207423Y149374*
X208048*
X207423D02*
X206798Y149061D01*
X206486Y148436*
X206798Y147811*
X207423Y147499*
X208048*
X208673Y147811*
X235036Y34663D02*
Y37475D01*
X234723Y38100*
X234098Y38413*
X232848*
X232223Y38100*
X231911Y37475*
Y34663*
X229411Y38413D02*
X228161D01*
X228786D02*
Y34663D01*
X229411Y35287*
X235289Y42764D02*
X1461D01*
Y146032*
X235289*
Y95023*
X234664*
Y93773*
X235289*
Y42764*
X235641Y175645D02*
X291546D01*
Y158834*
X238141*
X235641Y161334*
Y175645*
X237223Y8913D02*
X204349D01*
Y31787*
X237223*
Y20975*
X236598*
Y19725*
X237223*
Y8913*
X257661Y30787D02*
X257973Y31100D01*
X258598Y31413*
X259536*
X260161Y31100*
X260473Y30787*
X260786Y30163*
Y28913*
X260473Y28287*
X260161Y27975*
X259536Y27663*
X258598*
X257973Y27975*
X257661Y28287*
X255786Y30163D02*
Y28913D01*
X255473Y28287*
X255161Y27975*
X254536Y27663*
X253911*
X253286Y27975*
X252973Y28287*
X252661Y28913*
Y30163*
X252973Y30787*
X253286Y31100*
X253911Y31413*
X254536*
X255161Y31100*
X255473Y30787*
X255786Y30163*
X250786Y31413D02*
Y27663D01*
X247661Y31413*
Y27663*
X245786Y31413D02*
Y27663D01*
X242661Y31413*
Y27663*
X239223Y31413D02*
Y27663D01*
X240786Y30163*
X238286*
X296661Y155663D02*
X296348Y155350D01*
X295723Y155037*
X294786*
X294161Y155350*
X293848Y155663*
X293536Y156287*
Y157537*
X293848Y158163*
X294161Y158475*
X294786Y158787*
X295723*
X296348Y158475*
X296661Y158163*
X298536Y156287D02*
Y157537D01*
X298848Y158163*
X299161Y158475*
X299786Y158787*
X300411*
X301036Y158475*
X301348Y158163*
X301661Y157537*
Y156287*
X301348Y155663*
X301036Y155350*
X300411Y155037*
X299786*
X299161Y155350*
X298848Y155663*
X298536Y156287*
X303536Y155037D02*
Y158787D01*
X306661Y155037*
Y158787*
X308536Y155037D02*
Y158787D01*
X311661Y155037*
Y158787*
X314161Y155037D02*
X315411D01*
X314786D02*
Y158787D01*
X314161Y158163*
X335052Y33893D02*
X235898Y33626D01*
Y153350*
X335052Y153617*
Y132017*
X335070*
Y130767*
X335052*
Y33893*
D02*
D81*
X233536Y166563D02*
Y170993D01*
X229845*
X297536Y170743D02*
Y166313D01*
X293845Y170743*
Y166313*
D02*
D82*
X74635Y10310D02*
Y14148D01*
X73036D02*
X76235D01*
X78154Y10310D02*
Y14148D01*
X81353*
X80713Y12229D02*
X78154D01*
Y10310D02*
X81353D01*
X83272D02*
Y14148D01*
X84872Y12229*
X86471Y14148*
Y10310*
X88390D02*
Y14148D01*
X90630*
X91269Y13828*
X91589Y13189*
X91269Y12549*
X90630Y12229*
X88390*
X117142Y10560D02*
Y14398D01*
Y12479D02*
X120341D01*
Y10560D02*
Y14398D01*
X122260D02*
Y11519D01*
X122580Y10880*
X123220Y10560*
X124499*
X125139Y10880*
X125459Y11519*
Y14398*
X127378Y10560D02*
Y14398D01*
X128978Y12479*
X130577Y14398*
Y10560*
X132496D02*
Y14398D01*
X135695*
X135055Y12479D02*
X132496D01*
Y10560D02*
X135695D01*
X137614D02*
Y14398D01*
X139533*
X140173Y14078*
X140493Y13759*
X140813Y13119*
Y11839*
X140493Y11200*
X140173Y10880*
X139533Y10560*
X137614*
X142732D02*
X144332Y14398D01*
X145931Y10560*
X143372Y12159D02*
X145291D01*
X147850Y10560D02*
Y14398D01*
X149770*
X150409Y14078*
X150730Y13759*
X151049Y13119*
Y11839*
X150730Y11200*
X150409Y10880*
X149770Y10560*
X147850*
X191525Y14659D02*
X192485D01*
Y14339*
X192165Y13700*
X191845Y13380*
X191205Y13060*
X190565*
X189926Y13380*
X189606Y13700*
X189286Y14339*
Y15619*
X189606Y16259*
X189926Y16578*
X190565Y16898*
X191205*
X191845Y16578*
X192165Y16259*
X192485Y15619*
X194404Y13060D02*
Y16898D01*
X197603Y13060*
Y16898*
X199522Y13060D02*
Y16898D01*
X201441*
X202081Y16578*
X202401Y16259*
X202721Y15619*
Y14339*
X202401Y13700*
X202081Y13380*
X201441Y13060*
X199522*
X189606Y23630D02*
X190246Y23310D01*
X190885*
X191525Y23630*
X191845Y24269*
X191525Y24909*
X190885Y25229*
X190246*
X190885D02*
X191525Y25549D01*
X191845Y26189*
X191525Y26828*
X190885Y27148*
X190246*
X189606Y26828*
X194404Y27148D02*
X196004Y23310D01*
X197603Y27148*
X199842Y23630D02*
X200482Y23310D01*
X201122*
X201761Y23630*
X202081Y24269*
X201761Y24909*
X201122Y25229*
X200482*
X201122D02*
X201761Y25549D01*
X202081Y26189*
X201761Y26828*
X201122Y27148*
X200482*
X199842Y26828*
D02*
D83*
X240709Y22068D02*
X243042D01*
Y11624*
X240709*
Y22068*
G36*
X243042*
Y11624*
X240709*
Y22068*
G37*
Y25568D02*
X243042D01*
Y23235*
X240709*
Y25568*
G36*
X243042*
Y23235*
X240709*
Y25568*
G37*
X248597Y18291D02*
X249292Y17235D01*
X249986Y16179*
X250681Y17235*
X251375Y18291*
X252403Y19846*
X253431Y21402*
Y11679*
X255764*
Y25568*
X253431*
X251709Y22957*
X249986Y20346*
X246486Y25568*
X244209*
Y11679*
X246486*
Y21402*
X248597Y18291*
G36*
X249292Y17235*
X249986Y16179*
X250681Y17235*
X251375Y18291*
X252403Y19846*
X253431Y21402*
Y11679*
X255764*
Y25568*
X253431*
X251709Y22957*
X249986Y20346*
X246486Y25568*
X244209*
Y11679*
X246486*
Y21402*
X248597Y18291*
G37*
X256933Y11732D02*
X259179D01*
X259803Y14104*
X263298*
X263922Y11732*
X266168*
X265045Y16350*
X258056*
X256933Y11732*
G36*
X259179*
X259803Y14104*
X263298*
X263922Y11732*
X266168*
X265045Y16350*
X258056*
X256933Y11732*
G37*
X260375Y16291D02*
X260959Y18596D01*
X261542Y20902*
X262709Y16291*
X260375*
X265045Y16350D02*
X262674Y25585D01*
X260427*
X258056Y16350*
X260302*
X261550Y20968*
X262674Y16350*
X265045*
G36*
X262674Y25585*
X260427*
X258056Y16350*
X260302*
X261550Y20968*
X262674Y16350*
X265045*
G37*
X268415D02*
G75*
G02X268914Y17723I1907J84D01*
G01*
X269413Y18222*
X268415Y20219*
Y21093*
G75*
G02X268789Y22216I3372J-500*
G01*
G75*
G02X269538Y22840I2144J-1811*
G01*
G75*
G02X270536Y23214I1561J-2644*
G01*
X271285*
X272034Y22965*
X272533Y22590*
X272907Y22341*
G75*
G03X273781I437J1055*
G01*
X274280Y22715*
G75*
G03Y24088I-1657J687*
G01*
G75*
G03X273157Y25086I-3393J-2686*
G01*
X272159Y25461*
G75*
G03X271285Y25585I-791J-2415*
G01*
X270411*
X269413Y25336*
X268664Y24961*
X267915Y24462*
X267291Y23838*
X266792Y23089*
X266418Y22216*
G75*
G03X266168Y21217I2706J-1207*
G01*
Y16350*
X268415*
G36*
G75*
G02X268914Y17723I1907J84*
G01*
X269413Y18222*
X268415Y20219*
Y21093*
G75*
G02X268789Y22216I3372J-500*
G01*
G75*
G02X269538Y22840I2144J-1811*
G01*
G75*
G02X270536Y23214I1561J-2644*
G01*
X271285*
X272034Y22965*
X272533Y22590*
X272907Y22341*
G75*
G03X273781I437J1055*
G01*
X274280Y22715*
G75*
G03Y24088I-1657J687*
G01*
G75*
G03X273157Y25086I-3393J-2686*
G01*
X272159Y25461*
G75*
G03X271285Y25585I-791J-2415*
G01*
X270411*
X269413Y25336*
X268664Y24961*
X267915Y24462*
X267291Y23838*
X266792Y23089*
X266418Y22216*
G75*
G03X266168Y21217I2706J-1207*
G01*
Y16350*
X268415*
G37*
X266168*
X266418Y14977*
X266917Y13854*
X267666Y12856*
X268415Y12107*
G75*
G03X269663Y11732I1686J3352*
G01*
X270661Y11607*
X271410*
G75*
G03X272783Y11982I-375J4080*
G01*
G75*
G03X274031Y12856I-1346J3252*
G01*
X274904Y13979*
X275404Y15476*
G75*
G03Y16849I-3893J687*
G01*
G75*
G03X275029Y18347I-4434J-313*
G01*
G75*
G03X274280Y19345I-3206J-1624*
G01*
X273531Y20094*
X272533Y20593*
X271535Y20843*
X270287*
X269039Y20593*
X268415Y20219*
X269413Y18222*
G75*
G02X270411Y18596I951J-1018*
G01*
X271285*
G75*
G02X272283Y18097I-917J-3081*
G01*
X272783Y17473*
X273032Y16849*
G75*
G02Y15601I-2815J-624*
G01*
X272783Y15102*
G75*
G02X272159Y14353I-1216J379*
G01*
X271410Y14104*
G75*
G02X270037I-686J1657*
G01*
X269163Y14603*
G75*
G02X268415Y16100I1433J1653*
G01*
Y16350*
G36*
X266168*
X266418Y14977*
X266917Y13854*
X267666Y12856*
X268415Y12107*
G75*
G03X269663Y11732I1686J3352*
G01*
X270661Y11607*
X271410*
G75*
G03X272783Y11982I-375J4080*
G01*
G75*
G03X274031Y12856I-1346J3252*
G01*
X274904Y13979*
X275404Y15476*
G75*
G03Y16849I-3893J687*
G01*
G75*
G03X275029Y18347I-4434J-313*
G01*
G75*
G03X274280Y19345I-3206J-1624*
G01*
X273531Y20094*
X272533Y20593*
X271535Y20843*
X270287*
X269039Y20593*
X268415Y20219*
X269413Y18222*
G75*
G02X270411Y18596I951J-1018*
G01*
X271285*
G75*
G02X272283Y18097I-917J-3081*
G01*
X272783Y17473*
X273032Y16849*
G75*
G02Y15601I-2815J-624*
G01*
X272783Y15102*
G75*
G02X272159Y14353I-1216J379*
G01*
X271410Y14104*
G75*
G02X270037I-686J1657*
G01*
X269163Y14603*
G75*
G02X268415Y16100I1433J1653*
G01*
Y16350*
G37*
X276597Y22068D02*
X278931D01*
Y11624*
X276597*
Y22068*
G36*
X278931*
Y11624*
X276597*
Y22068*
G37*
Y25568D02*
X278931D01*
Y23235*
X276597*
Y25568*
G36*
X278931*
Y23235*
X276597*
Y25568*
G37*
X282375Y20568D02*
X286986Y11679D01*
X289320*
Y25568*
X286986*
Y16679*
X282375Y25568*
X280042*
Y11679*
X282375*
Y20568*
G36*
X286986Y11679*
X289320*
Y25568*
X286986*
Y16679*
X282375Y25568*
X280042*
Y11679*
X282375*
Y20568*
G37*
X290486Y25568D02*
Y11679D01*
X299764*
Y14013*
X292820*
Y17457*
X297431*
Y19735*
X292820*
Y23235*
X299764*
Y25568*
X290486*
G36*
Y11679*
X299764*
Y14013*
X292820*
Y17457*
X297431*
Y19735*
X292820*
Y23235*
X299764*
Y25568*
X290486*
G37*
X302820Y13068D02*
X303986Y15096D01*
X305153Y17124*
X306320Y19152*
X307486Y21179*
X307500Y21207*
X307514Y21235*
X307542Y21291*
X307514Y21304*
X307486Y21318*
X307459Y21332*
X307431Y21346*
X305125Y22679*
X303972Y23346*
X302820Y24013*
Y24902*
X304070Y24179*
X305320Y23457*
X306570Y22735*
X307820Y22013*
X307847Y21999*
X307875Y21985*
X307903Y21971*
X307931Y21957*
X307944Y21985*
X307959Y22013*
X307972Y22041*
X307986Y22068*
X309292Y24332*
X310597Y26596*
X311903Y28860*
X313209Y31124*
X313542Y31318*
X313709Y31415*
X313875Y31513*
Y30735*
X309959Y23943*
X308653Y21679*
X308639Y21652*
X308625Y21624*
X308611Y21596*
X308597Y21568*
X308625Y21554*
X308653Y21541*
X308681Y21526*
X308709Y21513*
X309959Y20791*
X311209Y20068*
X312459Y19346*
X313709Y18624*
X313125Y18291*
X312931Y18179*
X311778Y18846*
X309472Y20179*
X308320Y20846*
X308292Y20860*
X308264Y20874*
X308236Y20888*
X308209Y20902*
X308194Y20874*
X308181Y20846*
X308167Y20818*
X308153Y20791*
X305820Y16735*
X304653Y14707*
X303486Y12679*
X303320Y12582*
X303153Y12485*
X302986Y12388*
X302820Y12291*
Y13068*
X314093Y32450D02*
Y31576D01*
X313843Y31326*
X313094Y31077*
X307852Y21966*
X302735Y24961*
Y23963*
X307478Y21217*
X302735Y13105*
Y12356*
X303609Y12856*
X308227Y20968*
X322954Y12481*
X303609*
X302860Y12107*
X314093Y5617*
Y4743*
X301987Y11607*
Y25585*
X314093Y32450*
G36*
Y31576*
X313843Y31326*
X313094Y31077*
X307852Y21966*
X302735Y24961*
Y23963*
X307478Y21217*
X302735Y13105*
Y12356*
X303609Y12856*
X308227Y20968*
X322954Y12481*
X303609*
X302860Y12107*
X314093Y5617*
Y4743*
X301987Y11607*
Y25585*
X314093Y32450*
G37*
X326074Y25585*
Y11607*
X314093Y4743*
Y5742*
X314717Y6116*
X305107Y11732*
X324451*
X325200Y12107*
X314093Y18472*
X313219Y17972*
X312969Y18222*
X313718Y18721*
X308601Y21592*
X313843Y30702*
Y31451*
X314093*
Y30827*
X319459Y21717*
X314342Y18596*
X315216Y18097*
X325325Y24088*
Y24961*
X320208Y21966*
X314841Y31077*
X314093Y31576*
Y32450*
G36*
X326074Y25585*
Y11607*
X314093Y4743*
Y5742*
X314717Y6116*
X305107Y11732*
X324451*
X325200Y12107*
X314093Y18472*
X313219Y17972*
X312969Y18222*
X313718Y18721*
X308601Y21592*
X313843Y30702*
Y31451*
X314093*
Y30827*
X319459Y21717*
X314342Y18596*
X315216Y18097*
X325325Y24088*
Y24961*
X320208Y21966*
X314841Y31077*
X314093Y31576*
Y32450*
G37*
X324486Y11679D02*
X305153D01*
X305264Y11610*
X305375Y11541*
X305486Y11471*
X305597Y11402*
X307889Y10082*
X312472Y7443*
X314764Y6124*
X314181Y5791*
X313986Y5679*
X311209Y7276*
X305653Y10471*
X302875Y12068*
X303042Y12165*
X303209Y12263*
X303542Y12457*
X322931*
X322806Y12526*
X322681Y12596*
X322556Y12665*
X322431Y12735*
X320139Y14054*
X317847Y15374*
X315556Y16693*
X313264Y18013*
X313459Y18124*
X313653Y18235*
X313847Y18346*
X314042Y18457*
X316820Y16860*
X319597Y15263*
X322375Y13665*
X325153Y12068*
X324820Y11874*
X324653Y11776*
X324486Y11679*
X325320Y24068D02*
X322778Y22596D01*
X320236Y21124*
X317694Y19652*
X315153Y18179*
X314959Y18291*
X314375Y18624*
X315625Y19346*
X316875Y20068*
X318125Y20791*
X319375Y21513*
X319403Y21526*
X319431Y21541*
X319459Y21554*
X319486Y21568*
X319472Y21596*
X319459Y21624*
X319444Y21652*
X319431Y21679*
X318125Y23943*
X314209Y30735*
Y31513*
X314542Y31318*
X314709Y31221*
X314875Y31124*
X317486Y26596*
X318792Y24332*
X320097Y22068*
X320111Y22041*
X320139Y21985*
X320153Y21957*
X320209Y21985*
X320236Y21999*
X320264Y22013*
X321514Y22735*
X322764Y23457*
X324014Y24179*
X325264Y24902*
Y24068*
X325320*
X327375Y24957D02*
X328209D01*
X328332Y24948*
X328444Y24922*
X328537Y24887*
X328597Y24846*
X328661Y24794*
X328694Y24721*
X328707Y24627*
X328708Y24513*
X328699Y24438*
X328674Y24374*
X328638Y24309*
X328597Y24235*
X328545Y24193*
X328472Y24152*
X328379Y24110*
X328264Y24068*
X328305Y24059*
X328341Y24041*
X328366Y24021*
X328375Y24013*
X328408Y23971*
X328431Y23929*
X328453Y23888*
X328486Y23846*
X328506Y23816*
X328556Y23728*
X328627Y23588*
X328708Y23402*
X328264*
X328158Y23589*
X328083Y23735*
X328030Y23839*
X327986Y23902*
X327944Y23942*
X327903Y23978*
X327861Y24003*
X327820Y24013*
X327764*
Y23402*
X327375*
Y24957*
G36*
X328209*
X328332Y24948*
X328444Y24922*
X328537Y24887*
X328597Y24846*
X328661Y24794*
X328694Y24721*
X328707Y24627*
X328708Y24513*
X328699Y24438*
X328674Y24374*
X328638Y24309*
X328597Y24235*
X328545Y24193*
X328472Y24152*
X328379Y24110*
X328264Y24068*
X328305Y24059*
X328341Y24041*
X328366Y24021*
X328375Y24013*
X328408Y23971*
X328431Y23929*
X328453Y23888*
X328486Y23846*
X328506Y23816*
X328556Y23728*
X328627Y23588*
X328708Y23402*
X328264*
X328158Y23589*
X328083Y23735*
X328030Y23839*
X327986Y23902*
X327944Y23942*
X327903Y23978*
X327861Y24003*
X327820Y24013*
X327764*
Y23402*
X327375*
Y24957*
G37*
X329597Y24179D02*
X329587Y23980D01*
X329556Y23797*
X329504Y23624*
X329431Y23457*
X329337Y23301*
X329222Y23165*
X329087Y23051*
X328931Y22957*
X328763Y22884*
X328591Y22832*
X328407Y22801*
X328209Y22791*
X328010Y22801*
X327826Y22832*
X327654Y22884*
X327486Y22957*
X327330Y23051*
X327194Y23165*
X327080Y23301*
X326986Y23457*
X326913Y23624*
X326861Y23797*
X326830Y23980*
X326820Y24179*
X326830Y24378*
X326861Y24561*
X326913Y24734*
X326986Y24902*
X327080Y25058*
X327194Y25193*
X327330Y25308*
X327486Y25402*
X327654Y25474*
X327826Y25526*
X328010Y25558*
X328209Y25568*
X328407Y25558*
X328591Y25526*
X328763Y25474*
X328931Y25402*
X329087Y25308*
X329222Y25193*
X329337Y25058*
X329431Y24902*
X329504Y24734*
X329556Y24561*
X329587Y24378*
X329597Y24179*
X0Y0D02*
M02*
