G04 EasyPC Gerber Version 20.0.2 Build 4112 *
%FSLAX35Y35*%
%MOIN*%
%ADD15C,0.00500*%
%ADD14C,0.10000*%
X0Y0D02*
D02*
D14*
X8358Y15882D03*
Y59189D03*
X8969Y8992D03*
Y22772D03*
Y52299D03*
Y66079D03*
X13358Y15882D03*
Y59189D03*
X18358Y15882D03*
Y59189D03*
X22748Y8992D03*
Y22772D03*
Y52299D03*
Y66079D03*
X23358Y15882D03*
Y59189D03*
X51665Y15882D03*
Y59189D03*
X52276Y8992D03*
Y22772D03*
Y52299D03*
Y66079D03*
X56665Y15882D03*
Y59189D03*
X61665Y15882D03*
Y59189D03*
X66055Y8992D03*
Y22772D03*
Y52299D03*
Y66079D03*
X66665Y15882D03*
Y59189D03*
X94972Y15882D03*
Y59189D03*
X95583Y8992D03*
Y22772D03*
Y52299D03*
Y66079D03*
X99972Y15882D03*
Y59189D03*
X104972Y15882D03*
Y59189D03*
X109362Y8992D03*
Y22772D03*
Y52299D03*
Y66079D03*
X109972Y15882D03*
Y59189D03*
D02*
D15*
X18358Y21819D02*
Y25569D01*
X21483*
X20858Y23694D02*
X18358D01*
Y65126D02*
Y68876D01*
X21483*
X20858Y67002D02*
X18358D01*
X18969Y14930D02*
Y18680D01*
X21156*
X21781Y18367*
X22094Y17742*
X21781Y17117*
X21156Y16805*
X18969*
Y28709D02*
Y32459D01*
X21156*
X21781Y32147*
X22094Y31522*
X21781Y30897*
X21156Y30584*
X18969*
Y58237D02*
Y61987D01*
X21156*
X21781Y61674*
X22094Y61049*
X21781Y60424*
X21156Y60112*
X18969*
Y72016D02*
Y75766D01*
X21156*
X21781Y75454*
X22094Y74829*
X21781Y74204*
X21156Y73891*
X18969*
X23358Y21819D02*
Y25569D01*
X26483*
X25858Y23694D02*
X23358D01*
Y65126D02*
Y68876D01*
X26483*
X25858Y67002D02*
X23358D01*
X28358Y21819D02*
Y25569D01*
X31483*
X30858Y23694D02*
X28358D01*
Y65126D02*
Y68876D01*
X31483*
X30858Y67002D02*
X28358D01*
X32748Y14930D02*
Y18680D01*
X34935*
X35561Y18367*
X35873Y17742*
X35561Y17117*
X34935Y16805*
X32748*
Y28709D02*
Y32459D01*
X34935*
X35561Y32147*
X35873Y31522*
X35561Y30897*
X34935Y30584*
X32748*
Y58237D02*
Y61987D01*
X34935*
X35561Y61674*
X35873Y61049*
X35561Y60424*
X34935Y60112*
X32748*
Y72016D02*
Y75766D01*
X34935*
X35561Y75454*
X35873Y74829*
X35561Y74204*
X34935Y73891*
X32748*
X33358Y21819D02*
Y25569D01*
X36483*
X35858Y23694D02*
X33358D01*
Y65126D02*
Y68876D01*
X36483*
X35858Y67002D02*
X33358D01*
X61665Y21819D02*
Y25569D01*
X64791*
X64165Y23694D02*
X61665D01*
Y65126D02*
Y68876D01*
X64791*
X64165Y67002D02*
X61665D01*
X62276Y14930D02*
Y18680D01*
X64463*
X65088Y18367*
X65401Y17742*
X65088Y17117*
X64463Y16805*
X62276*
Y28709D02*
Y32459D01*
X64463*
X65088Y32147*
X65401Y31522*
X65088Y30897*
X64463Y30584*
X62276*
Y58237D02*
Y61987D01*
X64463*
X65088Y61674*
X65401Y61049*
X65088Y60424*
X64463Y60112*
X62276*
Y72016D02*
Y75766D01*
X64463*
X65088Y75454*
X65401Y74829*
X65088Y74204*
X64463Y73891*
X62276*
X66665Y21819D02*
Y25569D01*
X69791*
X69165Y23694D02*
X66665D01*
Y65126D02*
Y68876D01*
X69791*
X69165Y67002D02*
X66665D01*
X71665Y21819D02*
Y25569D01*
X74791*
X74165Y23694D02*
X71665D01*
Y65126D02*
Y68876D01*
X74791*
X74165Y67002D02*
X71665D01*
X76055Y14930D02*
Y18680D01*
X78243*
X78868Y18367*
X79180Y17742*
X78868Y17117*
X78243Y16805*
X76055*
Y28709D02*
Y32459D01*
X78243*
X78868Y32147*
X79180Y31522*
X78868Y30897*
X78243Y30584*
X76055*
Y58237D02*
Y61987D01*
X78243*
X78868Y61674*
X79180Y61049*
X78868Y60424*
X78243Y60112*
X76055*
Y72016D02*
Y75766D01*
X78243*
X78868Y75454*
X79180Y74829*
X78868Y74204*
X78243Y73891*
X76055*
X76665Y21819D02*
Y25569D01*
X79791*
X79165Y23694D02*
X76665D01*
Y65126D02*
Y68876D01*
X79791*
X79165Y67002D02*
X76665D01*
X104972Y21819D02*
Y25569D01*
X108098*
X107472Y23694D02*
X104972D01*
Y65126D02*
Y68876D01*
X108098*
X107472Y67002D02*
X104972D01*
X105583Y14930D02*
Y18680D01*
X107770*
X108395Y18367*
X108708Y17742*
X108395Y17117*
X107770Y16805*
X105583*
Y28709D02*
Y32459D01*
X107770*
X108395Y32147*
X108708Y31522*
X108395Y30897*
X107770Y30584*
X105583*
Y58237D02*
Y61987D01*
X107770*
X108395Y61674*
X108708Y61049*
X108395Y60424*
X107770Y60112*
X105583*
Y72016D02*
Y75766D01*
X107770*
X108395Y75454*
X108708Y74829*
X108395Y74204*
X107770Y73891*
X105583*
X109972Y21819D02*
Y25569D01*
X113098*
X112472Y23694D02*
X109972D01*
Y65126D02*
Y68876D01*
X113098*
X112472Y67002D02*
X109972D01*
X114972Y21819D02*
Y25569D01*
X118098*
X117472Y23694D02*
X114972D01*
Y65126D02*
Y68876D01*
X118098*
X117472Y67002D02*
X114972D01*
X119362Y14930D02*
Y18680D01*
X121550*
X122175Y18367*
X122487Y17742*
X122175Y17117*
X121550Y16805*
X119362*
Y28709D02*
Y32459D01*
X121550*
X122175Y32147*
X122487Y31522*
X122175Y30897*
X121550Y30584*
X119362*
Y58237D02*
Y61987D01*
X121550*
X122175Y61674*
X122487Y61049*
X122175Y60424*
X121550Y60112*
X119362*
Y72016D02*
Y75766D01*
X121550*
X122175Y75454*
X122487Y74829*
X122175Y74204*
X121550Y73891*
X119362*
X119972Y21819D02*
Y25569D01*
X123098*
X122472Y23694D02*
X119972D01*
Y65126D02*
Y68876D01*
X123098*
X122472Y67002D02*
X119972D01*
X0Y0D02*
M02*
