G04 EasyPC Gerber Version 20.0.2 Build 4112 *
%FSLAX35Y35*%
%MOIN*%
%AMT133*0 Octagon Pad at angle 0*4,1,8,-0.01712,-0.04134,0.01712,-0.04134,0.04134,-0.01712,0.04134,0.01712,0.01712,0.04134,-0.01712,0.04134,-0.04134,0.01712,-0.04134,-0.01712,-0.01712,-0.04134,0*%
%ADD133T133*%
%ADD131R,0.03346X0.03346*%
%ADD123C,0.03150*%
%ADD132C,0.03346*%
%ADD29C,0.03937*%
%ADD20C,0.08268*%
%AMT134*0 Triangle Pad at angle 90*4,1,3,0.01673,-0.01673,0.01673,0.01673,-0.01673,0.00000,0.01673,-0.01673,0*%
%ADD134T134*%
X0Y0D02*
D02*
D20*
X8969Y8992D03*
Y22772D03*
Y52299D03*
Y66079D03*
X22748Y22772D03*
Y66079D03*
X52276Y8992D03*
Y22772D03*
Y52299D03*
Y66079D03*
X66055Y22772D03*
Y66079D03*
X95583Y8992D03*
Y22772D03*
Y52299D03*
Y66079D03*
X109362Y22772D03*
Y66079D03*
D02*
D29*
X8358Y22161D02*
X8969Y22772D01*
X8358Y65469D02*
X8969Y66079D01*
Y8992D02*
X11969D01*
X13358Y10382*
Y15882*
X8969Y52299D02*
X11969D01*
X13358Y53689*
Y59189*
X22748Y22772D02*
X20248D01*
X18358Y20882*
Y15882*
X22748Y66079D02*
X20248D01*
X18358Y64189*
Y59189*
X51665Y22161D02*
X52276Y22772D01*
X51665Y65469D02*
X52276Y66079D01*
Y8992D02*
X55276D01*
X56665Y10382*
Y15882*
X52276Y52299D02*
X55276D01*
X56665Y53689*
Y59189*
X66055Y22772D02*
X63555D01*
X61665Y20882*
Y15882*
X66055Y66079D02*
X63555D01*
X61665Y64189*
Y59189*
X94972Y22161D02*
X95583Y22772D01*
X94972Y65469D02*
X95583Y66079D01*
Y8992D02*
X98583D01*
X99972Y10382*
Y15882*
X95583Y52299D02*
X98583D01*
X99972Y53689*
Y59189*
X109362Y22772D02*
X106862D01*
X104972Y20882*
Y15882*
X109362Y66079D02*
X106862D01*
X104972Y64189*
Y59189*
D02*
D123*
X8358Y15882D02*
Y22161D01*
Y59189D02*
Y65469D01*
X23358Y15882D02*
Y9602D01*
X22748Y8992*
X23358Y59189D02*
Y52909D01*
X22748Y52299*
X51665Y15882D02*
Y22161D01*
Y59189D02*
Y65469D01*
X66665Y15882D02*
Y9602D01*
X66055Y8992*
X66665Y59189D02*
Y52909D01*
X66055Y52299*
X94972Y15882D02*
Y22161D01*
Y59189D02*
Y65469D01*
X109972Y15882D02*
Y9602D01*
X109362Y8992*
X109972Y59189D02*
Y52909D01*
X109362Y52299*
D02*
D131*
X8358Y15882D03*
Y59189D03*
X51665Y15882D03*
Y59189D03*
X94972Y15882D03*
Y59189D03*
D02*
D132*
X13358Y15882D03*
Y59189D03*
X18358Y15882D03*
Y59189D03*
X23358Y15882D03*
Y59189D03*
X56665Y15882D03*
Y59189D03*
X61665Y15882D03*
Y59189D03*
X66665Y15882D03*
Y59189D03*
X99972Y15882D03*
Y59189D03*
X104972Y15882D03*
Y59189D03*
X109972Y15882D03*
Y59189D03*
D02*
D133*
X22748Y8992D03*
Y52299D03*
X66055Y8992D03*
Y52299D03*
X109362Y8992D03*
Y52299D03*
D02*
D134*
X28858Y15882D03*
Y59189D03*
X72165Y15882D03*
Y59189D03*
X115472Y15882D03*
Y59189D03*
X0Y0D02*
M02*
