G04 EasyPC Gerber Version 20.0.2 Build 4112 *
%FSLAX35Y35*%
%MOIN*%
%ADD15C,0.00500*%
X0Y0D02*
D02*
D15*
X30865Y18994D02*
X30539Y18978D01*
X30215Y18932*
X29897Y18855*
X29588Y18748*
X29291Y18612*
X29008Y18448*
X28742Y18259*
X28494Y18044*
X28269Y17808*
X28067Y17551*
X27890Y17276*
X27741Y16985*
X27619Y16681*
X27527Y16368*
X27465Y16047*
X27434Y15721*
Y15394*
X27465Y15069*
X27527Y14748*
X27619Y14434*
X27741Y14131*
X27890Y13840*
X28067Y13565*
X28269Y13308*
X28494Y13071*
X28742Y12857*
X29008Y12667*
X29291Y12504*
X29588Y12368*
X29897Y12261*
X30215Y12184*
X30539Y12137*
X30865Y12121*
Y62301D02*
X30539Y62285D01*
X30215Y62239*
X29897Y62162*
X29588Y62055*
X29291Y61919*
X29008Y61756*
X28742Y61566*
X28494Y61352*
X28269Y61115*
X28067Y60858*
X27890Y60583*
X27741Y60292*
X27619Y59989*
X27527Y59675*
X27465Y59354*
X27434Y59028*
Y58702*
X27465Y58376*
X27527Y58055*
X27619Y57741*
X27741Y57438*
X27890Y57147*
X28067Y56872*
X28269Y56615*
X28494Y56378*
X28742Y56164*
X29008Y55974*
X29291Y55811*
X29588Y55675*
X29897Y55568*
X30215Y55491*
X30539Y55444*
X30865Y55428*
Y105608D02*
X30539Y105593D01*
X30215Y105546*
X29897Y105469*
X29588Y105362*
X29291Y105226*
X29008Y105063*
X28742Y104873*
X28494Y104659*
X28269Y104422*
X28067Y104165*
X27890Y103890*
X27741Y103599*
X27619Y103296*
X27527Y102982*
X27465Y102661*
X27434Y102335*
Y102009*
X27465Y101683*
X27527Y101362*
X27619Y101048*
X27741Y100745*
X27890Y100454*
X28067Y100179*
X28269Y99922*
X28494Y99685*
X28742Y99471*
X29008Y99281*
X29291Y99118*
X29588Y98982*
X29897Y98875*
X30215Y98798*
X30539Y98752*
X30865Y98735*
Y148915D02*
X30539Y148900D01*
X30215Y148853*
X29897Y148776*
X29588Y148669*
X29291Y148533*
X29008Y148370*
X28742Y148180*
X28494Y147966*
X28269Y147729*
X28067Y147472*
X27890Y147197*
X27741Y146906*
X27619Y146603*
X27527Y146289*
X27465Y145968*
X27434Y145643*
Y145316*
X27465Y144990*
X27527Y144669*
X27619Y144356*
X27741Y144052*
X27890Y143761*
X28067Y143486*
X28269Y143229*
X28494Y142993*
X28742Y142778*
X29008Y142589*
X29291Y142425*
X29588Y142289*
X29897Y142182*
X30215Y142105*
X30539Y142059*
X30865Y142043*
X31490Y15870D02*
X31474Y15169D01*
X31427Y14470*
X31349Y13774*
X31239Y13081*
X31099Y12395*
X30928Y11715*
X30726Y11044*
X30494Y10383*
X30233Y9732*
X29944Y9094*
X29626Y8470*
X29280Y7860*
X28907Y7267*
X28508Y6691*
X28083Y6133*
X27634Y5595*
X27161Y5078*
X26666Y4582*
X26149Y4109*
X25611Y3660*
X25054Y3235*
X24478Y2836*
X23884Y2463*
X23275Y2117*
X22650Y1799*
X22012Y1509*
X21362Y1248*
X20700Y1016*
X20029Y815*
X19350Y643*
X18663Y502*
X17971Y393*
X17274Y314*
X16575Y267*
X15874Y251*
X15174Y266*
X14474Y313*
X13778Y391*
X13086Y501*
X12399Y641*
X11720Y812*
X11048Y1013*
X10387Y1244*
X9737Y1505*
X9098Y1795*
X8474Y2113*
X7864Y2459*
X7270Y2831*
X6694Y3230*
X6136Y3654*
X5598Y4103*
X5081Y4576*
X4585Y5071*
X4112Y5588*
X3663Y6126*
X3238Y6683*
X2839Y7259*
X2465Y7852*
X2119Y8462*
X1801Y9086*
X1511Y9724*
X1249Y10374*
X1017Y11036*
X815Y11707*
X644Y12387*
X503Y13073*
X393Y13765*
X314Y14462*
X267Y15161*
X250Y15870*
X266Y16571*
X313Y17270*
X391Y17967*
X501Y18659*
X641Y19345*
X813Y20025*
X1014Y20696*
X1246Y21357*
X1507Y22008*
X1796Y22646*
X2115Y23270*
X2460Y23880*
X2833Y24473*
X3232Y25049*
X3657Y25607*
X4106Y26145*
X4579Y26662*
X5074Y27158*
X5591Y27631*
X6129Y28080*
X6687Y28505*
X7263Y28904*
X7856Y29277*
X8465Y29623*
X9090Y29941*
X9728Y30231*
X10378Y30493*
X11040Y30724*
X11711Y30926*
X12391Y31097*
X13077Y31238*
X13769Y31348*
X14466Y31426*
X15165Y31474*
X15866Y31489*
X16567Y31474*
X17266Y31427*
X17962Y31349*
X18654Y31239*
X19341Y31099*
X20020Y30928*
X20692Y30727*
X21353Y30496*
X22004Y30235*
X22642Y29945*
X23266Y29627*
X23876Y29281*
X24470Y28909*
X25046Y28510*
X25604Y28086*
X26142Y27637*
X26659Y27165*
X27155Y26669*
X27628Y26152*
X28078Y25615*
X28502Y25057*
X28902Y24481*
X29275Y23888*
X29621Y23278*
X29939Y22654*
X30230Y22016*
X30491Y21366*
X30723Y20704*
X30925Y20033*
X31096Y19354*
X31237Y18667*
X31347Y17975*
X31426Y17278*
X31474Y16579*
X31490Y15870*
Y59177D02*
X31474Y58476D01*
X31427Y57777*
X31349Y57081*
X31239Y56389*
X31099Y55702*
X30928Y55022*
X30726Y54351*
X30494Y53690*
X30233Y53039*
X29944Y52401*
X29626Y51777*
X29280Y51167*
X28907Y50574*
X28508Y49998*
X28083Y49441*
X27634Y48902*
X27161Y48385*
X26666Y47889*
X26149Y47417*
X25611Y46967*
X25054Y46543*
X24478Y46143*
X23884Y45770*
X23275Y45424*
X22650Y45106*
X22012Y44816*
X21362Y44555*
X20700Y44323*
X20029Y44122*
X19350Y43950*
X18663Y43809*
X17971Y43700*
X17274Y43621*
X16575Y43574*
X15874Y43558*
X15174Y43573*
X14474Y43620*
X13778Y43698*
X13086Y43808*
X12399Y43948*
X11720Y44119*
X11048Y44320*
X10387Y44552*
X9737Y44812*
X9098Y45102*
X8474Y45420*
X7864Y45766*
X7270Y46138*
X6694Y46537*
X6136Y46961*
X5598Y47410*
X5081Y47883*
X4585Y48378*
X4112Y48895*
X3663Y49433*
X3238Y49990*
X2839Y50566*
X2465Y51159*
X2119Y51769*
X1801Y52393*
X1511Y53031*
X1249Y53681*
X1017Y54343*
X815Y55014*
X644Y55694*
X503Y56380*
X393Y57072*
X314Y57769*
X267Y58468*
X250Y59177*
X266Y59878*
X313Y60577*
X391Y61274*
X501Y61966*
X641Y62652*
X813Y63332*
X1014Y64003*
X1246Y64665*
X1507Y65315*
X1796Y65953*
X2115Y66578*
X2460Y67187*
X2833Y67780*
X3232Y68356*
X3657Y68914*
X4106Y69452*
X4579Y69969*
X5074Y70465*
X5591Y70938*
X6129Y71387*
X6687Y71812*
X7263Y72211*
X7856Y72584*
X8465Y72930*
X9090Y73248*
X9728Y73539*
X10378Y73800*
X11040Y74031*
X11711Y74233*
X12391Y74404*
X13077Y74545*
X13769Y74655*
X14466Y74733*
X15165Y74781*
X15866Y74796*
X16567Y74781*
X17266Y74734*
X17962Y74656*
X18654Y74546*
X19341Y74406*
X20020Y74235*
X20692Y74034*
X21353Y73803*
X22004Y73542*
X22642Y73252*
X23266Y72934*
X23876Y72589*
X24470Y72216*
X25046Y71817*
X25604Y71393*
X26142Y70944*
X26659Y70472*
X27155Y69976*
X27628Y69459*
X28078Y68922*
X28502Y68364*
X28902Y67788*
X29275Y67195*
X29621Y66585*
X29939Y65961*
X30230Y65323*
X30491Y64673*
X30723Y64011*
X30925Y63340*
X31096Y62661*
X31237Y61974*
X31347Y61282*
X31426Y60585*
X31474Y59886*
X31490Y59177*
Y102484D02*
X31474Y101783D01*
X31427Y101084*
X31349Y100388*
X31239Y99696*
X31099Y99009*
X30928Y98330*
X30726Y97658*
X30494Y96997*
X30233Y96346*
X29944Y95708*
X29626Y95084*
X29280Y94474*
X28907Y93881*
X28508Y93305*
X28083Y92748*
X27634Y92209*
X27161Y91692*
X26666Y91196*
X26149Y90724*
X25611Y90274*
X25054Y89850*
X24478Y89450*
X23884Y89078*
X23275Y88731*
X22650Y88413*
X22012Y88123*
X21362Y87862*
X20700Y87630*
X20029Y87429*
X19350Y87257*
X18663Y87117*
X17971Y87007*
X17274Y86928*
X16575Y86881*
X15874Y86865*
X15174Y86880*
X14474Y86927*
X13778Y87006*
X13086Y87115*
X12399Y87256*
X11720Y87426*
X11048Y87628*
X10387Y87859*
X9737Y88119*
X9098Y88409*
X8474Y88727*
X7864Y89073*
X7270Y89445*
X6694Y89844*
X6136Y90269*
X5598Y90717*
X5081Y91190*
X4585Y91685*
X4112Y92202*
X3663Y92740*
X3238Y93297*
X2839Y93873*
X2465Y94467*
X2119Y95076*
X1801Y95700*
X1511Y96338*
X1249Y96989*
X1017Y97650*
X815Y98321*
X644Y99001*
X503Y99687*
X393Y100380*
X314Y101076*
X267Y101775*
X250Y102484*
X266Y103185*
X313Y103884*
X391Y104581*
X501Y105273*
X641Y105959*
X813Y106639*
X1014Y107310*
X1246Y107972*
X1507Y108622*
X1796Y109260*
X2115Y109885*
X2460Y110494*
X2833Y111087*
X3232Y111663*
X3657Y112221*
X4106Y112759*
X4579Y113276*
X5074Y113772*
X5591Y114245*
X6129Y114694*
X6687Y115119*
X7263Y115518*
X7856Y115891*
X8465Y116237*
X9090Y116556*
X9728Y116846*
X10378Y117107*
X11040Y117338*
X11711Y117540*
X12391Y117711*
X13077Y117852*
X13769Y117962*
X14466Y118041*
X15165Y118088*
X15866Y118104*
X16567Y118088*
X17266Y118041*
X17962Y117963*
X18654Y117854*
X19341Y117713*
X20020Y117542*
X20692Y117341*
X21353Y117110*
X22004Y116849*
X22642Y116559*
X23266Y116241*
X23876Y115896*
X24470Y115523*
X25046Y115124*
X25604Y114700*
X26142Y114251*
X26659Y113779*
X27155Y113283*
X27628Y112767*
X28078Y112229*
X28502Y111671*
X28902Y111095*
X29275Y110502*
X29621Y109893*
X29939Y109268*
X30230Y108630*
X30491Y107980*
X30723Y107319*
X30925Y106647*
X31096Y105968*
X31237Y105281*
X31347Y104589*
X31426Y103893*
X31474Y103193*
X31490Y102484*
Y145791D02*
X31474Y145091D01*
X31427Y144391*
X31349Y143695*
X31239Y143003*
X31099Y142316*
X30928Y141637*
X30726Y140965*
X30494Y140304*
X30233Y139654*
X29944Y139015*
X29626Y138391*
X29280Y137781*
X28907Y137188*
X28508Y136612*
X28083Y136055*
X27634Y135517*
X27161Y134999*
X26666Y134504*
X26149Y134031*
X25611Y133581*
X25054Y133157*
X24478Y132757*
X23884Y132385*
X23275Y132039*
X22650Y131720*
X22012Y131430*
X21362Y131169*
X20700Y130937*
X20029Y130736*
X19350Y130565*
X18663Y130424*
X17971Y130314*
X17274Y130235*
X16575Y130188*
X15874Y130172*
X15174Y130187*
X14474Y130234*
X13778Y130313*
X13086Y130422*
X12399Y130563*
X11720Y130733*
X11048Y130935*
X10387Y131166*
X9737Y131426*
X9098Y131716*
X8474Y132034*
X7864Y132380*
X7270Y132752*
X6694Y133151*
X6136Y133576*
X5598Y134024*
X5081Y134497*
X4585Y134992*
X4112Y135509*
X3663Y136047*
X3238Y136604*
X2839Y137180*
X2465Y137774*
X2119Y138383*
X1801Y139007*
X1511Y139645*
X1249Y140296*
X1017Y140957*
X815Y141628*
X644Y142308*
X503Y142994*
X393Y143687*
X314Y144383*
X267Y145082*
X250Y145791*
X266Y146492*
X313Y147191*
X391Y147888*
X501Y148580*
X641Y149267*
X813Y149946*
X1014Y150617*
X1246Y151279*
X1507Y151929*
X1796Y152567*
X2115Y153192*
X2460Y153801*
X2833Y154394*
X3232Y154970*
X3657Y155528*
X4106Y156066*
X4579Y156583*
X5074Y157079*
X5591Y157552*
X6129Y158001*
X6687Y158426*
X7263Y158825*
X7856Y159198*
X8465Y159544*
X9090Y159863*
X9728Y160153*
X10378Y160414*
X11040Y160645*
X11711Y160847*
X12391Y161018*
X13077Y161159*
X13769Y161269*
X14466Y161348*
X15165Y161395*
X15866Y161411*
X16567Y161395*
X17266Y161348*
X17962Y161270*
X18654Y161161*
X19341Y161020*
X20020Y160849*
X20692Y160648*
X21353Y160417*
X22004Y160156*
X22642Y159867*
X23266Y159548*
X23876Y159203*
X24470Y158830*
X25046Y158431*
X25604Y158007*
X26142Y157558*
X26659Y157086*
X27155Y156591*
X27628Y156074*
X28078Y155536*
X28502Y154978*
X28902Y154402*
X29275Y153809*
X29621Y153200*
X29939Y152575*
X30230Y151937*
X30491Y151287*
X30723Y150626*
X30925Y149954*
X31096Y149275*
X31237Y148588*
X31347Y147896*
X31426Y147200*
X31474Y146500*
X31490Y145791*
X74172Y18994D02*
X73846Y18978D01*
X73522Y18932*
X73204Y18855*
X72895Y18748*
X72598Y18612*
X72315Y18448*
X72049Y18259*
X71802Y18044*
X71576Y17808*
X71374Y17551*
X71197Y17276*
X71048Y16985*
X70926Y16681*
X70834Y16368*
X70772Y16047*
X70741Y15721*
Y15394*
X70772Y15069*
X70834Y14748*
X70926Y14434*
X71048Y14131*
X71197Y13840*
X71374Y13565*
X71576Y13308*
X71802Y13071*
X72049Y12857*
X72315Y12667*
X72598Y12504*
X72895Y12368*
X73204Y12261*
X73522Y12184*
X73846Y12137*
X74172Y12121*
Y62301D02*
X73846Y62285D01*
X73522Y62239*
X73204Y62162*
X72895Y62055*
X72598Y61919*
X72315Y61756*
X72049Y61566*
X71802Y61352*
X71576Y61115*
X71374Y60858*
X71197Y60583*
X71048Y60292*
X70926Y59989*
X70834Y59675*
X70772Y59354*
X70741Y59028*
Y58702*
X70772Y58376*
X70834Y58055*
X70926Y57741*
X71048Y57438*
X71197Y57147*
X71374Y56872*
X71576Y56615*
X71802Y56378*
X72049Y56164*
X72315Y55974*
X72598Y55811*
X72895Y55675*
X73204Y55568*
X73522Y55491*
X73846Y55444*
X74172Y55428*
Y105608D02*
X73846Y105593D01*
X73522Y105546*
X73204Y105469*
X72895Y105362*
X72598Y105226*
X72315Y105063*
X72049Y104873*
X71802Y104659*
X71576Y104422*
X71374Y104165*
X71197Y103890*
X71048Y103599*
X70926Y103296*
X70834Y102982*
X70772Y102661*
X70741Y102335*
Y102009*
X70772Y101683*
X70834Y101362*
X70926Y101048*
X71048Y100745*
X71197Y100454*
X71374Y100179*
X71576Y99922*
X71802Y99685*
X72049Y99471*
X72315Y99281*
X72598Y99118*
X72895Y98982*
X73204Y98875*
X73522Y98798*
X73846Y98752*
X74172Y98735*
Y148915D02*
X73846Y148900D01*
X73522Y148853*
X73204Y148776*
X72895Y148669*
X72598Y148533*
X72315Y148370*
X72049Y148180*
X71802Y147966*
X71576Y147729*
X71374Y147472*
X71197Y147197*
X71048Y146906*
X70926Y146603*
X70834Y146289*
X70772Y145968*
X70741Y145643*
Y145316*
X70772Y144990*
X70834Y144669*
X70926Y144356*
X71048Y144052*
X71197Y143761*
X71374Y143486*
X71576Y143229*
X71802Y142993*
X72049Y142778*
X72315Y142589*
X72598Y142425*
X72895Y142289*
X73204Y142182*
X73522Y142105*
X73846Y142059*
X74172Y142043*
X74797Y15870D02*
X74781Y15169D01*
X74734Y14470*
X74656Y13774*
X74546Y13081*
X74406Y12395*
X74235Y11715*
X74033Y11044*
X73802Y10383*
X73541Y9732*
X73251Y9094*
X72933Y8470*
X72587Y7860*
X72214Y7267*
X71815Y6691*
X71391Y6133*
X70941Y5595*
X70469Y5078*
X69973Y4582*
X69456Y4109*
X68918Y3660*
X68361Y3235*
X67785Y2836*
X67191Y2463*
X66582Y2117*
X65957Y1799*
X65319Y1509*
X64669Y1248*
X64007Y1016*
X63336Y815*
X62657Y643*
X61970Y502*
X61278Y393*
X60581Y314*
X59882Y267*
X59181Y251*
X58481Y266*
X57781Y313*
X57085Y391*
X56393Y501*
X55706Y641*
X55027Y812*
X54356Y1013*
X53694Y1244*
X53044Y1505*
X52406Y1795*
X51781Y2113*
X51171Y2459*
X50578Y2831*
X50001Y3230*
X49443Y3654*
X48905Y4103*
X48388Y4576*
X47892Y5071*
X47419Y5588*
X46970Y6126*
X46545Y6683*
X46146Y7259*
X45772Y7852*
X45426Y8462*
X45108Y9086*
X44818Y9724*
X44556Y10374*
X44324Y11036*
X44122Y11707*
X43951Y12387*
X43810Y13073*
X43700Y13765*
X43621Y14462*
X43574Y15161*
X43557Y15870*
X43573Y16571*
X43620Y17270*
X43698Y17967*
X43808Y18659*
X43948Y19345*
X44120Y20025*
X44321Y20696*
X44553Y21357*
X44814Y22008*
X45104Y22646*
X45422Y23270*
X45767Y23880*
X46140Y24473*
X46539Y25049*
X46964Y25607*
X47413Y26145*
X47886Y26662*
X48381Y27158*
X48898Y27631*
X49436Y28080*
X49994Y28505*
X50570Y28904*
X51163Y29277*
X51772Y29623*
X52397Y29941*
X53035Y30231*
X53685Y30493*
X54347Y30724*
X55018Y30926*
X55698Y31097*
X56384Y31238*
X57076Y31348*
X57773Y31426*
X58472Y31474*
X59173Y31489*
X59874Y31474*
X60573Y31427*
X61269Y31349*
X61961Y31239*
X62648Y31099*
X63328Y30928*
X63999Y30727*
X64660Y30496*
X65311Y30235*
X65949Y29945*
X66573Y29627*
X67183Y29281*
X67777Y28909*
X68353Y28510*
X68911Y28086*
X69449Y27637*
X69967Y27165*
X70462Y26669*
X70935Y26152*
X71385Y25615*
X71809Y25057*
X72209Y24481*
X72582Y23888*
X72928Y23278*
X73246Y22654*
X73537Y22016*
X73798Y21366*
X74030Y20704*
X74232Y20033*
X74404Y19354*
X74544Y18667*
X74654Y17975*
X74733Y17278*
X74781Y16579*
X74797Y15870*
Y59177D02*
X74781Y58476D01*
X74734Y57777*
X74656Y57081*
X74546Y56389*
X74406Y55702*
X74235Y55022*
X74033Y54351*
X73802Y53690*
X73541Y53039*
X73251Y52401*
X72933Y51777*
X72587Y51167*
X72214Y50574*
X71815Y49998*
X71391Y49441*
X70941Y48902*
X70469Y48385*
X69973Y47889*
X69456Y47417*
X68918Y46967*
X68361Y46543*
X67785Y46143*
X67191Y45770*
X66582Y45424*
X65957Y45106*
X65319Y44816*
X64669Y44555*
X64007Y44323*
X63336Y44122*
X62657Y43950*
X61970Y43809*
X61278Y43700*
X60581Y43621*
X59882Y43574*
X59181Y43558*
X58481Y43573*
X57781Y43620*
X57085Y43698*
X56393Y43808*
X55706Y43948*
X55027Y44119*
X54356Y44320*
X53694Y44552*
X53044Y44812*
X52406Y45102*
X51781Y45420*
X51171Y45766*
X50578Y46138*
X50001Y46537*
X49443Y46961*
X48905Y47410*
X48388Y47883*
X47892Y48378*
X47419Y48895*
X46970Y49433*
X46545Y49990*
X46146Y50566*
X45772Y51159*
X45426Y51769*
X45108Y52393*
X44818Y53031*
X44556Y53681*
X44324Y54343*
X44122Y55014*
X43951Y55694*
X43810Y56380*
X43700Y57072*
X43621Y57769*
X43574Y58468*
X43557Y59177*
X43573Y59878*
X43620Y60577*
X43698Y61274*
X43808Y61966*
X43948Y62652*
X44120Y63332*
X44321Y64003*
X44553Y64665*
X44814Y65315*
X45104Y65953*
X45422Y66578*
X45767Y67187*
X46140Y67780*
X46539Y68356*
X46964Y68914*
X47413Y69452*
X47886Y69969*
X48381Y70465*
X48898Y70938*
X49436Y71387*
X49994Y71812*
X50570Y72211*
X51163Y72584*
X51772Y72930*
X52397Y73248*
X53035Y73539*
X53685Y73800*
X54347Y74031*
X55018Y74233*
X55698Y74404*
X56384Y74545*
X57076Y74655*
X57773Y74733*
X58472Y74781*
X59173Y74796*
X59874Y74781*
X60573Y74734*
X61269Y74656*
X61961Y74546*
X62648Y74406*
X63328Y74235*
X63999Y74034*
X64660Y73803*
X65311Y73542*
X65949Y73252*
X66573Y72934*
X67183Y72589*
X67777Y72216*
X68353Y71817*
X68911Y71393*
X69449Y70944*
X69967Y70472*
X70462Y69976*
X70935Y69459*
X71385Y68922*
X71809Y68364*
X72209Y67788*
X72582Y67195*
X72928Y66585*
X73246Y65961*
X73537Y65323*
X73798Y64673*
X74030Y64011*
X74232Y63340*
X74404Y62661*
X74544Y61974*
X74654Y61282*
X74733Y60585*
X74781Y59886*
X74797Y59177*
Y102484D02*
X74781Y101783D01*
X74734Y101084*
X74656Y100388*
X74546Y99696*
X74406Y99009*
X74235Y98330*
X74033Y97658*
X73802Y96997*
X73541Y96346*
X73251Y95708*
X72933Y95084*
X72587Y94474*
X72214Y93881*
X71815Y93305*
X71391Y92748*
X70941Y92209*
X70469Y91692*
X69973Y91196*
X69456Y90724*
X68918Y90274*
X68361Y89850*
X67785Y89450*
X67191Y89078*
X66582Y88731*
X65957Y88413*
X65319Y88123*
X64669Y87862*
X64007Y87630*
X63336Y87429*
X62657Y87257*
X61970Y87117*
X61278Y87007*
X60581Y86928*
X59882Y86881*
X59181Y86865*
X58481Y86880*
X57781Y86927*
X57085Y87006*
X56393Y87115*
X55706Y87256*
X55027Y87426*
X54356Y87628*
X53694Y87859*
X53044Y88119*
X52406Y88409*
X51781Y88727*
X51171Y89073*
X50578Y89445*
X50001Y89844*
X49443Y90269*
X48905Y90717*
X48388Y91190*
X47892Y91685*
X47419Y92202*
X46970Y92740*
X46545Y93297*
X46146Y93873*
X45772Y94467*
X45426Y95076*
X45108Y95700*
X44818Y96338*
X44556Y96989*
X44324Y97650*
X44122Y98321*
X43951Y99001*
X43810Y99687*
X43700Y100380*
X43621Y101076*
X43574Y101775*
X43557Y102484*
X43573Y103185*
X43620Y103884*
X43698Y104581*
X43808Y105273*
X43948Y105959*
X44120Y106639*
X44321Y107310*
X44553Y107972*
X44814Y108622*
X45104Y109260*
X45422Y109885*
X45767Y110494*
X46140Y111087*
X46539Y111663*
X46964Y112221*
X47413Y112759*
X47886Y113276*
X48381Y113772*
X48898Y114245*
X49436Y114694*
X49994Y115119*
X50570Y115518*
X51163Y115891*
X51772Y116237*
X52397Y116556*
X53035Y116846*
X53685Y117107*
X54347Y117338*
X55018Y117540*
X55698Y117711*
X56384Y117852*
X57076Y117962*
X57773Y118041*
X58472Y118088*
X59173Y118104*
X59874Y118088*
X60573Y118041*
X61269Y117963*
X61961Y117854*
X62648Y117713*
X63328Y117542*
X63999Y117341*
X64660Y117110*
X65311Y116849*
X65949Y116559*
X66573Y116241*
X67183Y115896*
X67777Y115523*
X68353Y115124*
X68911Y114700*
X69449Y114251*
X69967Y113779*
X70462Y113283*
X70935Y112767*
X71385Y112229*
X71809Y111671*
X72209Y111095*
X72582Y110502*
X72928Y109893*
X73246Y109268*
X73537Y108630*
X73798Y107980*
X74030Y107319*
X74232Y106647*
X74404Y105968*
X74544Y105281*
X74654Y104589*
X74733Y103893*
X74781Y103193*
X74797Y102484*
Y145791D02*
X74781Y145091D01*
X74734Y144391*
X74656Y143695*
X74546Y143003*
X74406Y142316*
X74235Y141637*
X74033Y140965*
X73802Y140304*
X73541Y139654*
X73251Y139015*
X72933Y138391*
X72587Y137781*
X72214Y137188*
X71815Y136612*
X71391Y136055*
X70941Y135517*
X70469Y134999*
X69973Y134504*
X69456Y134031*
X68918Y133581*
X68361Y133157*
X67785Y132757*
X67191Y132385*
X66582Y132039*
X65957Y131720*
X65319Y131430*
X64669Y131169*
X64007Y130937*
X63336Y130736*
X62657Y130565*
X61970Y130424*
X61278Y130314*
X60581Y130235*
X59882Y130188*
X59181Y130172*
X58481Y130187*
X57781Y130234*
X57085Y130313*
X56393Y130422*
X55706Y130563*
X55027Y130733*
X54356Y130935*
X53694Y131166*
X53044Y131426*
X52406Y131716*
X51781Y132034*
X51171Y132380*
X50578Y132752*
X50001Y133151*
X49443Y133576*
X48905Y134024*
X48388Y134497*
X47892Y134992*
X47419Y135509*
X46970Y136047*
X46545Y136604*
X46146Y137180*
X45772Y137774*
X45426Y138383*
X45108Y139007*
X44818Y139645*
X44556Y140296*
X44324Y140957*
X44122Y141628*
X43951Y142308*
X43810Y142994*
X43700Y143687*
X43621Y144383*
X43574Y145082*
X43557Y145791*
X43573Y146492*
X43620Y147191*
X43698Y147888*
X43808Y148580*
X43948Y149267*
X44120Y149946*
X44321Y150617*
X44553Y151279*
X44814Y151929*
X45104Y152567*
X45422Y153192*
X45767Y153801*
X46140Y154394*
X46539Y154970*
X46964Y155528*
X47413Y156066*
X47886Y156583*
X48381Y157079*
X48898Y157552*
X49436Y158001*
X49994Y158426*
X50570Y158825*
X51163Y159198*
X51772Y159544*
X52397Y159863*
X53035Y160153*
X53685Y160414*
X54347Y160645*
X55018Y160847*
X55698Y161018*
X56384Y161159*
X57076Y161269*
X57773Y161348*
X58472Y161395*
X59173Y161411*
X59874Y161395*
X60573Y161348*
X61269Y161270*
X61961Y161161*
X62648Y161020*
X63328Y160849*
X63999Y160648*
X64660Y160417*
X65311Y160156*
X65949Y159867*
X66573Y159548*
X67183Y159203*
X67777Y158830*
X68353Y158431*
X68911Y158007*
X69449Y157558*
X69967Y157086*
X70462Y156591*
X70935Y156074*
X71385Y155536*
X71809Y154978*
X72209Y154402*
X72582Y153809*
X72928Y153200*
X73246Y152575*
X73537Y151937*
X73798Y151287*
X74030Y150626*
X74232Y149954*
X74404Y149275*
X74544Y148588*
X74654Y147896*
X74733Y147200*
X74781Y146500*
X74797Y145791*
X117480Y18994D02*
X117153Y18978D01*
X116829Y18932*
X116511Y18855*
X116202Y18748*
X115905Y18612*
X115622Y18448*
X115356Y18259*
X115109Y18044*
X114883Y17808*
X114681Y17551*
X114504Y17276*
X114355Y16985*
X114233Y16681*
X114141Y16368*
X114079Y16047*
X114048Y15721*
Y15394*
X114079Y15069*
X114141Y14748*
X114233Y14434*
X114355Y14131*
X114504Y13840*
X114681Y13565*
X114883Y13308*
X115109Y13071*
X115356Y12857*
X115622Y12667*
X115905Y12504*
X116202Y12368*
X116511Y12261*
X116829Y12184*
X117153Y12137*
X117480Y12121*
Y62301D02*
X117153Y62285D01*
X116829Y62239*
X116511Y62162*
X116202Y62055*
X115905Y61919*
X115622Y61756*
X115356Y61566*
X115109Y61352*
X114883Y61115*
X114681Y60858*
X114504Y60583*
X114355Y60292*
X114233Y59989*
X114141Y59675*
X114079Y59354*
X114048Y59028*
Y58702*
X114079Y58376*
X114141Y58055*
X114233Y57741*
X114355Y57438*
X114504Y57147*
X114681Y56872*
X114883Y56615*
X115109Y56378*
X115356Y56164*
X115622Y55974*
X115905Y55811*
X116202Y55675*
X116511Y55568*
X116829Y55491*
X117153Y55444*
X117480Y55428*
Y105608D02*
X117153Y105593D01*
X116829Y105546*
X116511Y105469*
X116202Y105362*
X115905Y105226*
X115622Y105063*
X115356Y104873*
X115109Y104659*
X114883Y104422*
X114681Y104165*
X114504Y103890*
X114355Y103599*
X114233Y103296*
X114141Y102982*
X114079Y102661*
X114048Y102335*
Y102009*
X114079Y101683*
X114141Y101362*
X114233Y101048*
X114355Y100745*
X114504Y100454*
X114681Y100179*
X114883Y99922*
X115109Y99685*
X115356Y99471*
X115622Y99281*
X115905Y99118*
X116202Y98982*
X116511Y98875*
X116829Y98798*
X117153Y98752*
X117480Y98735*
Y148915D02*
X117153Y148900D01*
X116829Y148853*
X116511Y148776*
X116202Y148669*
X115905Y148533*
X115622Y148370*
X115356Y148180*
X115109Y147966*
X114883Y147729*
X114681Y147472*
X114504Y147197*
X114355Y146906*
X114233Y146603*
X114141Y146289*
X114079Y145968*
X114048Y145643*
Y145316*
X114079Y144990*
X114141Y144669*
X114233Y144356*
X114355Y144052*
X114504Y143761*
X114681Y143486*
X114883Y143229*
X115109Y142993*
X115356Y142778*
X115622Y142589*
X115905Y142425*
X116202Y142289*
X116511Y142182*
X116829Y142105*
X117153Y142059*
X117480Y142043*
X118104Y15870D02*
X118089Y15169D01*
X118041Y14470*
X117963Y13774*
X117854Y13081*
X117713Y12395*
X117542Y11715*
X117340Y11044*
X117109Y10383*
X116848Y9732*
X116558Y9094*
X116240Y8470*
X115894Y7860*
X115521Y7267*
X115122Y6691*
X114698Y6133*
X114248Y5595*
X113776Y5078*
X113280Y4582*
X112763Y4109*
X112225Y3660*
X111668Y3235*
X111092Y2836*
X110498Y2463*
X109889Y2117*
X109265Y1799*
X108626Y1509*
X107976Y1248*
X107315Y1016*
X106643Y815*
X105964Y643*
X105277Y502*
X104585Y393*
X103889Y314*
X103189Y267*
X102489Y251*
X101788Y266*
X101089Y313*
X100392Y391*
X99700Y501*
X99013Y641*
X98334Y812*
X97663Y1013*
X97001Y1244*
X96351Y1505*
X95713Y1795*
X95088Y2113*
X94478Y2459*
X93885Y2831*
X93308Y3230*
X92750Y3654*
X92212Y4103*
X91695Y4576*
X91199Y5071*
X90726Y5588*
X90277Y6126*
X89852Y6683*
X89453Y7259*
X89080Y7852*
X88733Y8462*
X88415Y9086*
X88125Y9724*
X87863Y10374*
X87631Y11036*
X87430Y11707*
X87258Y12387*
X87117Y13073*
X87007Y13765*
X86928Y14462*
X86881Y15161*
X86864Y15870*
X86880Y16571*
X86927Y17270*
X87006Y17967*
X87115Y18659*
X87256Y19345*
X87427Y20025*
X87628Y20696*
X87860Y21357*
X88121Y22008*
X88411Y22646*
X88729Y23270*
X89074Y23880*
X89447Y24473*
X89846Y25049*
X90271Y25607*
X90720Y26145*
X91193Y26662*
X91688Y27158*
X92206Y27631*
X92743Y28080*
X93301Y28505*
X93877Y28904*
X94470Y29277*
X95080Y29623*
X95704Y29941*
X96342Y30231*
X96993Y30493*
X97654Y30724*
X98325Y30926*
X99005Y31097*
X99691Y31238*
X100383Y31348*
X101080Y31426*
X101779Y31474*
X102480Y31489*
X103181Y31474*
X103880Y31427*
X104576Y31349*
X105269Y31239*
X105955Y31099*
X106635Y30928*
X107306Y30727*
X107967Y30496*
X108618Y30235*
X109256Y29945*
X109880Y29627*
X110490Y29281*
X111084Y28909*
X111660Y28510*
X112218Y28086*
X112756Y27637*
X113274Y27165*
X113769Y26669*
X114243Y26152*
X114692Y25615*
X115117Y25057*
X115516Y24481*
X115889Y23888*
X116235Y23278*
X116554Y22654*
X116844Y22016*
X117105Y21366*
X117337Y20704*
X117539Y20033*
X117711Y19354*
X117852Y18667*
X117961Y17975*
X118040Y17278*
X118088Y16579*
X118104Y15870*
Y59177D02*
X118089Y58476D01*
X118041Y57777*
X117963Y57081*
X117854Y56389*
X117713Y55702*
X117542Y55022*
X117340Y54351*
X117109Y53690*
X116848Y53039*
X116558Y52401*
X116240Y51777*
X115894Y51167*
X115521Y50574*
X115122Y49998*
X114698Y49441*
X114248Y48902*
X113776Y48385*
X113280Y47889*
X112763Y47417*
X112225Y46967*
X111668Y46543*
X111092Y46143*
X110498Y45770*
X109889Y45424*
X109265Y45106*
X108626Y44816*
X107976Y44555*
X107315Y44323*
X106643Y44122*
X105964Y43950*
X105277Y43809*
X104585Y43700*
X103889Y43621*
X103189Y43574*
X102489Y43558*
X101788Y43573*
X101089Y43620*
X100392Y43698*
X99700Y43808*
X99013Y43948*
X98334Y44119*
X97663Y44320*
X97001Y44552*
X96351Y44812*
X95713Y45102*
X95088Y45420*
X94478Y45766*
X93885Y46138*
X93308Y46537*
X92750Y46961*
X92212Y47410*
X91695Y47883*
X91199Y48378*
X90726Y48895*
X90277Y49433*
X89852Y49990*
X89453Y50566*
X89080Y51159*
X88733Y51769*
X88415Y52393*
X88125Y53031*
X87863Y53681*
X87631Y54343*
X87430Y55014*
X87258Y55694*
X87117Y56380*
X87007Y57072*
X86928Y57769*
X86881Y58468*
X86864Y59177*
X86880Y59878*
X86927Y60577*
X87006Y61274*
X87115Y61966*
X87256Y62652*
X87427Y63332*
X87628Y64003*
X87860Y64665*
X88121Y65315*
X88411Y65953*
X88729Y66578*
X89074Y67187*
X89447Y67780*
X89846Y68356*
X90271Y68914*
X90720Y69452*
X91193Y69969*
X91688Y70465*
X92206Y70938*
X92743Y71387*
X93301Y71812*
X93877Y72211*
X94470Y72584*
X95080Y72930*
X95704Y73248*
X96342Y73539*
X96993Y73800*
X97654Y74031*
X98325Y74233*
X99005Y74404*
X99691Y74545*
X100383Y74655*
X101080Y74733*
X101779Y74781*
X102480Y74796*
X103181Y74781*
X103880Y74734*
X104576Y74656*
X105269Y74546*
X105955Y74406*
X106635Y74235*
X107306Y74034*
X107967Y73803*
X108618Y73542*
X109256Y73252*
X109880Y72934*
X110490Y72589*
X111084Y72216*
X111660Y71817*
X112218Y71393*
X112756Y70944*
X113274Y70472*
X113769Y69976*
X114243Y69459*
X114692Y68922*
X115117Y68364*
X115516Y67788*
X115889Y67195*
X116235Y66585*
X116554Y65961*
X116844Y65323*
X117105Y64673*
X117337Y64011*
X117539Y63340*
X117711Y62661*
X117852Y61974*
X117961Y61282*
X118040Y60585*
X118088Y59886*
X118104Y59177*
Y102484D02*
X118089Y101783D01*
X118041Y101084*
X117963Y100388*
X117854Y99696*
X117713Y99009*
X117542Y98330*
X117340Y97658*
X117109Y96997*
X116848Y96346*
X116558Y95708*
X116240Y95084*
X115894Y94474*
X115521Y93881*
X115122Y93305*
X114698Y92748*
X114248Y92209*
X113776Y91692*
X113280Y91196*
X112763Y90724*
X112225Y90274*
X111668Y89850*
X111092Y89450*
X110498Y89078*
X109889Y88731*
X109265Y88413*
X108626Y88123*
X107976Y87862*
X107315Y87630*
X106643Y87429*
X105964Y87257*
X105277Y87117*
X104585Y87007*
X103889Y86928*
X103189Y86881*
X102489Y86865*
X101788Y86880*
X101089Y86927*
X100392Y87006*
X99700Y87115*
X99013Y87256*
X98334Y87426*
X97663Y87628*
X97001Y87859*
X96351Y88119*
X95713Y88409*
X95088Y88727*
X94478Y89073*
X93885Y89445*
X93308Y89844*
X92750Y90269*
X92212Y90717*
X91695Y91190*
X91199Y91685*
X90726Y92202*
X90277Y92740*
X89852Y93297*
X89453Y93873*
X89080Y94467*
X88733Y95076*
X88415Y95700*
X88125Y96338*
X87863Y96989*
X87631Y97650*
X87430Y98321*
X87258Y99001*
X87117Y99687*
X87007Y100380*
X86928Y101076*
X86881Y101775*
X86864Y102484*
X86880Y103185*
X86927Y103884*
X87006Y104581*
X87115Y105273*
X87256Y105959*
X87427Y106639*
X87628Y107310*
X87860Y107972*
X88121Y108622*
X88411Y109260*
X88729Y109885*
X89074Y110494*
X89447Y111087*
X89846Y111663*
X90271Y112221*
X90720Y112759*
X91193Y113276*
X91688Y113772*
X92206Y114245*
X92743Y114694*
X93301Y115119*
X93877Y115518*
X94470Y115891*
X95080Y116237*
X95704Y116556*
X96342Y116846*
X96993Y117107*
X97654Y117338*
X98325Y117540*
X99005Y117711*
X99691Y117852*
X100383Y117962*
X101080Y118041*
X101779Y118088*
X102480Y118104*
X103181Y118088*
X103880Y118041*
X104576Y117963*
X105269Y117854*
X105955Y117713*
X106635Y117542*
X107306Y117341*
X107967Y117110*
X108618Y116849*
X109256Y116559*
X109880Y116241*
X110490Y115896*
X111084Y115523*
X111660Y115124*
X112218Y114700*
X112756Y114251*
X113274Y113779*
X113769Y113283*
X114243Y112767*
X114692Y112229*
X115117Y111671*
X115516Y111095*
X115889Y110502*
X116235Y109893*
X116554Y109268*
X116844Y108630*
X117105Y107980*
X117337Y107319*
X117539Y106647*
X117711Y105968*
X117852Y105281*
X117961Y104589*
X118040Y103893*
X118088Y103193*
X118104Y102484*
Y145791D02*
X118089Y145091D01*
X118041Y144391*
X117963Y143695*
X117854Y143003*
X117713Y142316*
X117542Y141637*
X117340Y140965*
X117109Y140304*
X116848Y139654*
X116558Y139015*
X116240Y138391*
X115894Y137781*
X115521Y137188*
X115122Y136612*
X114698Y136055*
X114248Y135517*
X113776Y134999*
X113280Y134504*
X112763Y134031*
X112225Y133581*
X111668Y133157*
X111092Y132757*
X110498Y132385*
X109889Y132039*
X109265Y131720*
X108626Y131430*
X107976Y131169*
X107315Y130937*
X106643Y130736*
X105964Y130565*
X105277Y130424*
X104585Y130314*
X103889Y130235*
X103189Y130188*
X102489Y130172*
X101788Y130187*
X101089Y130234*
X100392Y130313*
X99700Y130422*
X99013Y130563*
X98334Y130733*
X97663Y130935*
X97001Y131166*
X96351Y131426*
X95713Y131716*
X95088Y132034*
X94478Y132380*
X93885Y132752*
X93308Y133151*
X92750Y133576*
X92212Y134024*
X91695Y134497*
X91199Y134992*
X90726Y135509*
X90277Y136047*
X89852Y136604*
X89453Y137180*
X89080Y137774*
X88733Y138383*
X88415Y139007*
X88125Y139645*
X87863Y140296*
X87631Y140957*
X87430Y141628*
X87258Y142308*
X87117Y142994*
X87007Y143687*
X86928Y144383*
X86881Y145082*
X86864Y145791*
X86880Y146492*
X86927Y147191*
X87006Y147888*
X87115Y148580*
X87256Y149267*
X87427Y149946*
X87628Y150617*
X87860Y151279*
X88121Y151929*
X88411Y152567*
X88729Y153192*
X89074Y153801*
X89447Y154394*
X89846Y154970*
X90271Y155528*
X90720Y156066*
X91193Y156583*
X91688Y157079*
X92206Y157552*
X92743Y158001*
X93301Y158426*
X93877Y158825*
X94470Y159198*
X95080Y159544*
X95704Y159863*
X96342Y160153*
X96993Y160414*
X97654Y160645*
X98325Y160847*
X99005Y161018*
X99691Y161159*
X100383Y161269*
X101080Y161348*
X101779Y161395*
X102480Y161411*
X103181Y161395*
X103880Y161348*
X104576Y161270*
X105269Y161161*
X105955Y161020*
X106635Y160849*
X107306Y160648*
X107967Y160417*
X108618Y160156*
X109256Y159867*
X109880Y159548*
X110490Y159203*
X111084Y158830*
X111660Y158431*
X112218Y158007*
X112756Y157558*
X113274Y157086*
X113769Y156591*
X114243Y156074*
X114692Y155536*
X115117Y154978*
X115516Y154402*
X115889Y153809*
X116235Y153200*
X116554Y152575*
X116844Y151937*
X117105Y151287*
X117337Y150626*
X117539Y149954*
X117711Y149275*
X117852Y148588*
X117961Y147896*
X118040Y147200*
X118088Y146500*
X118104Y145791*
X160787Y18994D02*
X160460Y18978D01*
X160136Y18932*
X159819Y18855*
X159509Y18748*
X159212Y18612*
X158929Y18448*
X158663Y18259*
X158416Y18044*
X158190Y17808*
X157988Y17551*
X157811Y17276*
X157662Y16985*
X157540Y16681*
X157448Y16368*
X157386Y16047*
X157355Y15721*
Y15394*
X157386Y15069*
X157448Y14748*
X157540Y14434*
X157662Y14131*
X157811Y13840*
X157988Y13565*
X158190Y13308*
X158416Y13071*
X158663Y12857*
X158929Y12667*
X159212Y12504*
X159509Y12368*
X159819Y12261*
X160136Y12184*
X160460Y12137*
X160787Y12121*
Y62301D02*
X160460Y62285D01*
X160136Y62239*
X159819Y62162*
X159509Y62055*
X159212Y61919*
X158929Y61756*
X158663Y61566*
X158416Y61352*
X158190Y61115*
X157988Y60858*
X157811Y60583*
X157662Y60292*
X157540Y59989*
X157448Y59675*
X157386Y59354*
X157355Y59028*
Y58702*
X157386Y58376*
X157448Y58055*
X157540Y57741*
X157662Y57438*
X157811Y57147*
X157988Y56872*
X158190Y56615*
X158416Y56378*
X158663Y56164*
X158929Y55974*
X159212Y55811*
X159509Y55675*
X159819Y55568*
X160136Y55491*
X160460Y55444*
X160787Y55428*
Y105608D02*
X160460Y105593D01*
X160136Y105546*
X159819Y105469*
X159509Y105362*
X159212Y105226*
X158929Y105063*
X158663Y104873*
X158416Y104659*
X158190Y104422*
X157988Y104165*
X157811Y103890*
X157662Y103599*
X157540Y103296*
X157448Y102982*
X157386Y102661*
X157355Y102335*
Y102009*
X157386Y101683*
X157448Y101362*
X157540Y101048*
X157662Y100745*
X157811Y100454*
X157988Y100179*
X158190Y99922*
X158416Y99685*
X158663Y99471*
X158929Y99281*
X159212Y99118*
X159509Y98982*
X159819Y98875*
X160136Y98798*
X160460Y98752*
X160787Y98735*
Y148915D02*
X160460Y148900D01*
X160136Y148853*
X159819Y148776*
X159509Y148669*
X159212Y148533*
X158929Y148370*
X158663Y148180*
X158416Y147966*
X158190Y147729*
X157988Y147472*
X157811Y147197*
X157662Y146906*
X157540Y146603*
X157448Y146289*
X157386Y145968*
X157355Y145643*
Y145316*
X157386Y144990*
X157448Y144669*
X157540Y144356*
X157662Y144052*
X157811Y143761*
X157988Y143486*
X158190Y143229*
X158416Y142993*
X158663Y142778*
X158929Y142589*
X159212Y142425*
X159509Y142289*
X159819Y142182*
X160136Y142105*
X160460Y142059*
X160787Y142043*
X161411Y15870D02*
X161396Y15169D01*
X161348Y14470*
X161270Y13774*
X161161Y13081*
X161020Y12395*
X160849Y11715*
X160647Y11044*
X160416Y10383*
X160155Y9732*
X159865Y9094*
X159547Y8470*
X159201Y7860*
X158828Y7267*
X158429Y6691*
X158005Y6133*
X157556Y5595*
X157083Y5078*
X156587Y4582*
X156070Y4109*
X155532Y3660*
X154975Y3235*
X154399Y2836*
X153806Y2463*
X153196Y2117*
X152572Y1799*
X151933Y1509*
X151283Y1248*
X150622Y1016*
X149950Y815*
X149271Y643*
X148584Y502*
X147892Y393*
X147196Y314*
X146496Y267*
X145796Y251*
X145095Y266*
X144396Y313*
X143699Y391*
X143007Y501*
X142320Y641*
X141641Y812*
X140970Y1013*
X140308Y1244*
X139658Y1505*
X139020Y1795*
X138395Y2113*
X137785Y2459*
X137192Y2831*
X136615Y3230*
X136057Y3654*
X135519Y4103*
X135002Y4576*
X134506Y5071*
X134033Y5588*
X133584Y6126*
X133159Y6683*
X132760Y7259*
X132387Y7852*
X132041Y8462*
X131722Y9086*
X131432Y9724*
X131170Y10374*
X130939Y11036*
X130737Y11707*
X130565Y12387*
X130424Y13073*
X130314Y13765*
X130235Y14462*
X130188Y15161*
X130171Y15870*
X130187Y16571*
X130234Y17270*
X130313Y17967*
X130422Y18659*
X130563Y19345*
X130734Y20025*
X130935Y20696*
X131167Y21357*
X131428Y22008*
X131718Y22646*
X132036Y23270*
X132381Y23880*
X132754Y24473*
X133154Y25049*
X133578Y25607*
X134027Y26145*
X134500Y26662*
X134995Y27158*
X135513Y27631*
X136050Y28080*
X136608Y28505*
X137184Y28904*
X137777Y29277*
X138387Y29623*
X139011Y29941*
X139649Y30231*
X140300Y30493*
X140961Y30724*
X141632Y30926*
X142312Y31097*
X142998Y31238*
X143691Y31348*
X144387Y31426*
X145086Y31474*
X145787Y31489*
X146488Y31474*
X147187Y31427*
X147883Y31349*
X148576Y31239*
X149262Y31099*
X149942Y30928*
X150613Y30727*
X151274Y30496*
X151925Y30235*
X152563Y29945*
X153187Y29627*
X153797Y29281*
X154391Y28909*
X154967Y28510*
X155525Y28086*
X156063Y27637*
X156581Y27165*
X157076Y26669*
X157550Y26152*
X157999Y25615*
X158424Y25057*
X158823Y24481*
X159196Y23888*
X159542Y23278*
X159861Y22654*
X160151Y22016*
X160412Y21366*
X160644Y20704*
X160846Y20033*
X161018Y19354*
X161159Y18667*
X161269Y17975*
X161347Y17278*
X161395Y16579*
X161411Y15870*
Y59177D02*
X161396Y58476D01*
X161348Y57777*
X161270Y57081*
X161161Y56389*
X161020Y55702*
X160849Y55022*
X160647Y54351*
X160416Y53690*
X160155Y53039*
X159865Y52401*
X159547Y51777*
X159201Y51167*
X158828Y50574*
X158429Y49998*
X158005Y49441*
X157556Y48902*
X157083Y48385*
X156587Y47889*
X156070Y47417*
X155532Y46967*
X154975Y46543*
X154399Y46143*
X153806Y45770*
X153196Y45424*
X152572Y45106*
X151933Y44816*
X151283Y44555*
X150622Y44323*
X149950Y44122*
X149271Y43950*
X148584Y43809*
X147892Y43700*
X147196Y43621*
X146496Y43574*
X145796Y43558*
X145095Y43573*
X144396Y43620*
X143699Y43698*
X143007Y43808*
X142320Y43948*
X141641Y44119*
X140970Y44320*
X140308Y44552*
X139658Y44812*
X139020Y45102*
X138395Y45420*
X137785Y45766*
X137192Y46138*
X136615Y46537*
X136057Y46961*
X135519Y47410*
X135002Y47883*
X134506Y48378*
X134033Y48895*
X133584Y49433*
X133159Y49990*
X132760Y50566*
X132387Y51159*
X132041Y51769*
X131722Y52393*
X131432Y53031*
X131170Y53681*
X130939Y54343*
X130737Y55014*
X130565Y55694*
X130424Y56380*
X130314Y57072*
X130235Y57769*
X130188Y58468*
X130171Y59177*
X130187Y59878*
X130234Y60577*
X130313Y61274*
X130422Y61966*
X130563Y62652*
X130734Y63332*
X130935Y64003*
X131167Y64665*
X131428Y65315*
X131718Y65953*
X132036Y66578*
X132381Y67187*
X132754Y67780*
X133154Y68356*
X133578Y68914*
X134027Y69452*
X134500Y69969*
X134995Y70465*
X135513Y70938*
X136050Y71387*
X136608Y71812*
X137184Y72211*
X137777Y72584*
X138387Y72930*
X139011Y73248*
X139649Y73539*
X140300Y73800*
X140961Y74031*
X141632Y74233*
X142312Y74404*
X142998Y74545*
X143691Y74655*
X144387Y74733*
X145086Y74781*
X145787Y74796*
X146488Y74781*
X147187Y74734*
X147883Y74656*
X148576Y74546*
X149262Y74406*
X149942Y74235*
X150613Y74034*
X151274Y73803*
X151925Y73542*
X152563Y73252*
X153187Y72934*
X153797Y72589*
X154391Y72216*
X154967Y71817*
X155525Y71393*
X156063Y70944*
X156581Y70472*
X157076Y69976*
X157550Y69459*
X157999Y68922*
X158424Y68364*
X158823Y67788*
X159196Y67195*
X159542Y66585*
X159861Y65961*
X160151Y65323*
X160412Y64673*
X160644Y64011*
X160846Y63340*
X161018Y62661*
X161159Y61974*
X161269Y61282*
X161347Y60585*
X161395Y59886*
X161411Y59177*
Y102484D02*
X161396Y101783D01*
X161348Y101084*
X161270Y100388*
X161161Y99696*
X161020Y99009*
X160849Y98330*
X160647Y97658*
X160416Y96997*
X160155Y96346*
X159865Y95708*
X159547Y95084*
X159201Y94474*
X158828Y93881*
X158429Y93305*
X158005Y92748*
X157556Y92209*
X157083Y91692*
X156587Y91196*
X156070Y90724*
X155532Y90274*
X154975Y89850*
X154399Y89450*
X153806Y89078*
X153196Y88731*
X152572Y88413*
X151933Y88123*
X151283Y87862*
X150622Y87630*
X149950Y87429*
X149271Y87257*
X148584Y87117*
X147892Y87007*
X147196Y86928*
X146496Y86881*
X145796Y86865*
X145095Y86880*
X144396Y86927*
X143699Y87006*
X143007Y87115*
X142320Y87256*
X141641Y87426*
X140970Y87628*
X140308Y87859*
X139658Y88119*
X139020Y88409*
X138395Y88727*
X137785Y89073*
X137192Y89445*
X136615Y89844*
X136057Y90269*
X135519Y90717*
X135002Y91190*
X134506Y91685*
X134033Y92202*
X133584Y92740*
X133159Y93297*
X132760Y93873*
X132387Y94467*
X132041Y95076*
X131722Y95700*
X131432Y96338*
X131170Y96989*
X130939Y97650*
X130737Y98321*
X130565Y99001*
X130424Y99687*
X130314Y100380*
X130235Y101076*
X130188Y101775*
X130171Y102484*
X130187Y103185*
X130234Y103884*
X130313Y104581*
X130422Y105273*
X130563Y105959*
X130734Y106639*
X130935Y107310*
X131167Y107972*
X131428Y108622*
X131718Y109260*
X132036Y109885*
X132381Y110494*
X132754Y111087*
X133154Y111663*
X133578Y112221*
X134027Y112759*
X134500Y113276*
X134995Y113772*
X135513Y114245*
X136050Y114694*
X136608Y115119*
X137184Y115518*
X137777Y115891*
X138387Y116237*
X139011Y116556*
X139649Y116846*
X140300Y117107*
X140961Y117338*
X141632Y117540*
X142312Y117711*
X142998Y117852*
X143691Y117962*
X144387Y118041*
X145086Y118088*
X145787Y118104*
X146488Y118088*
X147187Y118041*
X147883Y117963*
X148576Y117854*
X149262Y117713*
X149942Y117542*
X150613Y117341*
X151274Y117110*
X151925Y116849*
X152563Y116559*
X153187Y116241*
X153797Y115896*
X154391Y115523*
X154967Y115124*
X155525Y114700*
X156063Y114251*
X156581Y113779*
X157076Y113283*
X157550Y112767*
X157999Y112229*
X158424Y111671*
X158823Y111095*
X159196Y110502*
X159542Y109893*
X159861Y109268*
X160151Y108630*
X160412Y107980*
X160644Y107319*
X160846Y106647*
X161018Y105968*
X161159Y105281*
X161269Y104589*
X161347Y103893*
X161395Y103193*
X161411Y102484*
Y145791D02*
X161396Y145091D01*
X161348Y144391*
X161270Y143695*
X161161Y143003*
X161020Y142316*
X160849Y141637*
X160647Y140965*
X160416Y140304*
X160155Y139654*
X159865Y139015*
X159547Y138391*
X159201Y137781*
X158828Y137188*
X158429Y136612*
X158005Y136055*
X157556Y135517*
X157083Y134999*
X156587Y134504*
X156070Y134031*
X155532Y133581*
X154975Y133157*
X154399Y132757*
X153806Y132385*
X153196Y132039*
X152572Y131720*
X151933Y131430*
X151283Y131169*
X150622Y130937*
X149950Y130736*
X149271Y130565*
X148584Y130424*
X147892Y130314*
X147196Y130235*
X146496Y130188*
X145796Y130172*
X145095Y130187*
X144396Y130234*
X143699Y130313*
X143007Y130422*
X142320Y130563*
X141641Y130733*
X140970Y130935*
X140308Y131166*
X139658Y131426*
X139020Y131716*
X138395Y132034*
X137785Y132380*
X137192Y132752*
X136615Y133151*
X136057Y133576*
X135519Y134024*
X135002Y134497*
X134506Y134992*
X134033Y135509*
X133584Y136047*
X133159Y136604*
X132760Y137180*
X132387Y137774*
X132041Y138383*
X131722Y139007*
X131432Y139645*
X131170Y140296*
X130939Y140957*
X130737Y141628*
X130565Y142308*
X130424Y142994*
X130314Y143687*
X130235Y144383*
X130188Y145082*
X130171Y145791*
X130187Y146492*
X130234Y147191*
X130313Y147888*
X130422Y148580*
X130563Y149267*
X130734Y149946*
X130935Y150617*
X131167Y151279*
X131428Y151929*
X131718Y152567*
X132036Y153192*
X132381Y153801*
X132754Y154394*
X133154Y154970*
X133578Y155528*
X134027Y156066*
X134500Y156583*
X134995Y157079*
X135513Y157552*
X136050Y158001*
X136608Y158426*
X137184Y158825*
X137777Y159198*
X138387Y159544*
X139011Y159863*
X139649Y160153*
X140300Y160414*
X140961Y160645*
X141632Y160847*
X142312Y161018*
X142998Y161159*
X143691Y161269*
X144387Y161348*
X145086Y161395*
X145787Y161411*
X146488Y161395*
X147187Y161348*
X147883Y161270*
X148576Y161161*
X149262Y161020*
X149942Y160849*
X150613Y160648*
X151274Y160417*
X151925Y160156*
X152563Y159867*
X153187Y159548*
X153797Y159203*
X154391Y158830*
X154967Y158431*
X155525Y158007*
X156063Y157558*
X156581Y157086*
X157076Y156591*
X157550Y156074*
X157999Y155536*
X158424Y154978*
X158823Y154402*
X159196Y153809*
X159542Y153200*
X159861Y152575*
X160151Y151937*
X160412Y151287*
X160644Y150626*
X160846Y149954*
X161018Y149275*
X161159Y148588*
X161269Y147896*
X161347Y147200*
X161395Y146500*
X161411Y145791*
X204094Y18994D02*
X203767Y18978D01*
X203443Y18932*
X203126Y18855*
X202817Y18748*
X202519Y18612*
X202236Y18448*
X201970Y18259*
X201723Y18044*
X201497Y17808*
X201295Y17551*
X201119Y17276*
X200969Y16985*
X200847Y16681*
X200755Y16368*
X200693Y16047*
X200662Y15721*
Y15394*
X200693Y15069*
X200755Y14748*
X200847Y14434*
X200969Y14131*
X201119Y13840*
X201295Y13565*
X201497Y13308*
X201723Y13071*
X201970Y12857*
X202236Y12667*
X202519Y12504*
X202817Y12368*
X203126Y12261*
X203443Y12184*
X203767Y12137*
X204094Y12121*
Y62301D02*
X203767Y62285D01*
X203443Y62239*
X203126Y62162*
X202817Y62055*
X202519Y61919*
X202236Y61756*
X201970Y61566*
X201723Y61352*
X201497Y61115*
X201295Y60858*
X201119Y60583*
X200969Y60292*
X200847Y59989*
X200755Y59675*
X200693Y59354*
X200662Y59028*
Y58702*
X200693Y58376*
X200755Y58055*
X200847Y57741*
X200969Y57438*
X201119Y57147*
X201295Y56872*
X201497Y56615*
X201723Y56378*
X201970Y56164*
X202236Y55974*
X202519Y55811*
X202817Y55675*
X203126Y55568*
X203443Y55491*
X203767Y55444*
X204094Y55428*
Y105608D02*
X203767Y105593D01*
X203443Y105546*
X203126Y105469*
X202817Y105362*
X202519Y105226*
X202236Y105063*
X201970Y104873*
X201723Y104659*
X201497Y104422*
X201295Y104165*
X201119Y103890*
X200969Y103599*
X200847Y103296*
X200755Y102982*
X200693Y102661*
X200662Y102335*
Y102009*
X200693Y101683*
X200755Y101362*
X200847Y101048*
X200969Y100745*
X201119Y100454*
X201295Y100179*
X201497Y99922*
X201723Y99685*
X201970Y99471*
X202236Y99281*
X202519Y99118*
X202817Y98982*
X203126Y98875*
X203443Y98798*
X203767Y98752*
X204094Y98735*
Y148915D02*
X203767Y148900D01*
X203443Y148853*
X203126Y148776*
X202817Y148669*
X202519Y148533*
X202236Y148370*
X201970Y148180*
X201723Y147966*
X201497Y147729*
X201295Y147472*
X201119Y147197*
X200969Y146906*
X200847Y146603*
X200755Y146289*
X200693Y145968*
X200662Y145643*
Y145316*
X200693Y144990*
X200755Y144669*
X200847Y144356*
X200969Y144052*
X201119Y143761*
X201295Y143486*
X201497Y143229*
X201723Y142993*
X201970Y142778*
X202236Y142589*
X202519Y142425*
X202817Y142289*
X203126Y142182*
X203443Y142105*
X203767Y142059*
X204094Y142043*
X204719Y15870D02*
X204703Y15169D01*
X204656Y14470*
X204577Y13774*
X204468Y13081*
X204327Y12395*
X204156Y11715*
X203954Y11044*
X203723Y10383*
X203462Y9732*
X203172Y9094*
X202854Y8470*
X202508Y7860*
X202135Y7267*
X201736Y6691*
X201312Y6133*
X200863Y5595*
X200390Y5078*
X199894Y4582*
X199377Y4109*
X198839Y3660*
X198282Y3235*
X197706Y2836*
X197113Y2463*
X196503Y2117*
X195879Y1799*
X195241Y1509*
X194590Y1248*
X193929Y1016*
X193257Y815*
X192578Y643*
X191891Y502*
X191199Y393*
X190503Y314*
X189804Y267*
X189103Y251*
X188402Y266*
X187703Y313*
X187006Y391*
X186314Y501*
X185628Y641*
X184948Y812*
X184277Y1013*
X183615Y1244*
X182965Y1505*
X182327Y1795*
X181702Y2113*
X181093Y2459*
X180499Y2831*
X179922Y3230*
X179365Y3654*
X178826Y4103*
X178309Y4576*
X177813Y5071*
X177340Y5588*
X176891Y6126*
X176466Y6683*
X176067Y7259*
X175694Y7852*
X175348Y8462*
X175029Y9086*
X174739Y9724*
X174478Y10374*
X174246Y11036*
X174044Y11707*
X173872Y12387*
X173731Y13073*
X173621Y13765*
X173543Y14462*
X173495Y15161*
X173478Y15870*
X173494Y16571*
X173541Y17270*
X173620Y17967*
X173729Y18659*
X173870Y19345*
X174041Y20025*
X174243Y20696*
X174474Y21357*
X174735Y22008*
X175025Y22646*
X175343Y23270*
X175689Y23880*
X176061Y24473*
X176461Y25049*
X176885Y25607*
X177334Y26145*
X177807Y26662*
X178302Y27158*
X178820Y27631*
X179357Y28080*
X179915Y28505*
X180491Y28904*
X181084Y29277*
X181694Y29623*
X182318Y29941*
X182956Y30231*
X183607Y30493*
X184268Y30724*
X184939Y30926*
X185619Y31097*
X186306Y31238*
X186998Y31348*
X187694Y31426*
X188393Y31474*
X189094Y31489*
X189795Y31474*
X190494Y31427*
X191191Y31349*
X191883Y31239*
X192569Y31099*
X193249Y30928*
X193920Y30727*
X194581Y30496*
X195232Y30235*
X195870Y29945*
X196494Y29627*
X197104Y29281*
X197698Y28909*
X198274Y28510*
X198832Y28086*
X199370Y27637*
X199888Y27165*
X200383Y26669*
X200857Y26152*
X201306Y25615*
X201731Y25057*
X202130Y24481*
X202503Y23888*
X202849Y23278*
X203168Y22654*
X203458Y22016*
X203719Y21366*
X203951Y20704*
X204153Y20033*
X204325Y19354*
X204466Y18667*
X204576Y17975*
X204654Y17278*
X204702Y16579*
X204719Y15870*
Y59177D02*
X204703Y58476D01*
X204656Y57777*
X204577Y57081*
X204468Y56389*
X204327Y55702*
X204156Y55022*
X203954Y54351*
X203723Y53690*
X203462Y53039*
X203172Y52401*
X202854Y51777*
X202508Y51167*
X202135Y50574*
X201736Y49998*
X201312Y49441*
X200863Y48902*
X200390Y48385*
X199894Y47889*
X199377Y47417*
X198839Y46967*
X198282Y46543*
X197706Y46143*
X197113Y45770*
X196503Y45424*
X195879Y45106*
X195241Y44816*
X194590Y44555*
X193929Y44323*
X193257Y44122*
X192578Y43950*
X191891Y43809*
X191199Y43700*
X190503Y43621*
X189804Y43574*
X189103Y43558*
X188402Y43573*
X187703Y43620*
X187006Y43698*
X186314Y43808*
X185628Y43948*
X184948Y44119*
X184277Y44320*
X183615Y44552*
X182965Y44812*
X182327Y45102*
X181702Y45420*
X181093Y45766*
X180499Y46138*
X179922Y46537*
X179365Y46961*
X178826Y47410*
X178309Y47883*
X177813Y48378*
X177340Y48895*
X176891Y49433*
X176466Y49990*
X176067Y50566*
X175694Y51159*
X175348Y51769*
X175029Y52393*
X174739Y53031*
X174478Y53681*
X174246Y54343*
X174044Y55014*
X173872Y55694*
X173731Y56380*
X173621Y57072*
X173543Y57769*
X173495Y58468*
X173478Y59177*
X173494Y59878*
X173541Y60577*
X173620Y61274*
X173729Y61966*
X173870Y62652*
X174041Y63332*
X174243Y64003*
X174474Y64665*
X174735Y65315*
X175025Y65953*
X175343Y66578*
X175689Y67187*
X176061Y67780*
X176461Y68356*
X176885Y68914*
X177334Y69452*
X177807Y69969*
X178302Y70465*
X178820Y70938*
X179357Y71387*
X179915Y71812*
X180491Y72211*
X181084Y72584*
X181694Y72930*
X182318Y73248*
X182956Y73539*
X183607Y73800*
X184268Y74031*
X184939Y74233*
X185619Y74404*
X186306Y74545*
X186998Y74655*
X187694Y74733*
X188393Y74781*
X189094Y74796*
X189795Y74781*
X190494Y74734*
X191191Y74656*
X191883Y74546*
X192569Y74406*
X193249Y74235*
X193920Y74034*
X194581Y73803*
X195232Y73542*
X195870Y73252*
X196494Y72934*
X197104Y72589*
X197698Y72216*
X198274Y71817*
X198832Y71393*
X199370Y70944*
X199888Y70472*
X200383Y69976*
X200857Y69459*
X201306Y68922*
X201731Y68364*
X202130Y67788*
X202503Y67195*
X202849Y66585*
X203168Y65961*
X203458Y65323*
X203719Y64673*
X203951Y64011*
X204153Y63340*
X204325Y62661*
X204466Y61974*
X204576Y61282*
X204654Y60585*
X204702Y59886*
X204719Y59177*
Y102484D02*
X204703Y101783D01*
X204656Y101084*
X204577Y100388*
X204468Y99696*
X204327Y99009*
X204156Y98330*
X203954Y97658*
X203723Y96997*
X203462Y96346*
X203172Y95708*
X202854Y95084*
X202508Y94474*
X202135Y93881*
X201736Y93305*
X201312Y92748*
X200863Y92209*
X200390Y91692*
X199894Y91196*
X199377Y90724*
X198839Y90274*
X198282Y89850*
X197706Y89450*
X197113Y89078*
X196503Y88731*
X195879Y88413*
X195241Y88123*
X194590Y87862*
X193929Y87630*
X193257Y87429*
X192578Y87257*
X191891Y87117*
X191199Y87007*
X190503Y86928*
X189804Y86881*
X189103Y86865*
X188402Y86880*
X187703Y86927*
X187006Y87006*
X186314Y87115*
X185628Y87256*
X184948Y87426*
X184277Y87628*
X183615Y87859*
X182965Y88119*
X182327Y88409*
X181702Y88727*
X181093Y89073*
X180499Y89445*
X179922Y89844*
X179365Y90269*
X178826Y90717*
X178309Y91190*
X177813Y91685*
X177340Y92202*
X176891Y92740*
X176466Y93297*
X176067Y93873*
X175694Y94467*
X175348Y95076*
X175029Y95700*
X174739Y96338*
X174478Y96989*
X174246Y97650*
X174044Y98321*
X173872Y99001*
X173731Y99687*
X173621Y100380*
X173543Y101076*
X173495Y101775*
X173478Y102484*
X173494Y103185*
X173541Y103884*
X173620Y104581*
X173729Y105273*
X173870Y105959*
X174041Y106639*
X174243Y107310*
X174474Y107972*
X174735Y108622*
X175025Y109260*
X175343Y109885*
X175689Y110494*
X176061Y111087*
X176461Y111663*
X176885Y112221*
X177334Y112759*
X177807Y113276*
X178302Y113772*
X178820Y114245*
X179357Y114694*
X179915Y115119*
X180491Y115518*
X181084Y115891*
X181694Y116237*
X182318Y116556*
X182956Y116846*
X183607Y117107*
X184268Y117338*
X184939Y117540*
X185619Y117711*
X186306Y117852*
X186998Y117962*
X187694Y118041*
X188393Y118088*
X189094Y118104*
X189795Y118088*
X190494Y118041*
X191191Y117963*
X191883Y117854*
X192569Y117713*
X193249Y117542*
X193920Y117341*
X194581Y117110*
X195232Y116849*
X195870Y116559*
X196494Y116241*
X197104Y115896*
X197698Y115523*
X198274Y115124*
X198832Y114700*
X199370Y114251*
X199888Y113779*
X200383Y113283*
X200857Y112767*
X201306Y112229*
X201731Y111671*
X202130Y111095*
X202503Y110502*
X202849Y109893*
X203168Y109268*
X203458Y108630*
X203719Y107980*
X203951Y107319*
X204153Y106647*
X204325Y105968*
X204466Y105281*
X204576Y104589*
X204654Y103893*
X204702Y103193*
X204719Y102484*
Y145791D02*
X204703Y145091D01*
X204656Y144391*
X204577Y143695*
X204468Y143003*
X204327Y142316*
X204156Y141637*
X203954Y140965*
X203723Y140304*
X203462Y139654*
X203172Y139015*
X202854Y138391*
X202508Y137781*
X202135Y137188*
X201736Y136612*
X201312Y136055*
X200863Y135517*
X200390Y134999*
X199894Y134504*
X199377Y134031*
X198839Y133581*
X198282Y133157*
X197706Y132757*
X197113Y132385*
X196503Y132039*
X195879Y131720*
X195241Y131430*
X194590Y131169*
X193929Y130937*
X193257Y130736*
X192578Y130565*
X191891Y130424*
X191199Y130314*
X190503Y130235*
X189804Y130188*
X189103Y130172*
X188402Y130187*
X187703Y130234*
X187006Y130313*
X186314Y130422*
X185628Y130563*
X184948Y130733*
X184277Y130935*
X183615Y131166*
X182965Y131426*
X182327Y131716*
X181702Y132034*
X181093Y132380*
X180499Y132752*
X179922Y133151*
X179365Y133576*
X178826Y134024*
X178309Y134497*
X177813Y134992*
X177340Y135509*
X176891Y136047*
X176466Y136604*
X176067Y137180*
X175694Y137774*
X175348Y138383*
X175029Y139007*
X174739Y139645*
X174478Y140296*
X174246Y140957*
X174044Y141628*
X173872Y142308*
X173731Y142994*
X173621Y143687*
X173543Y144383*
X173495Y145082*
X173478Y145791*
X173494Y146492*
X173541Y147191*
X173620Y147888*
X173729Y148580*
X173870Y149267*
X174041Y149946*
X174243Y150617*
X174474Y151279*
X174735Y151929*
X175025Y152567*
X175343Y153192*
X175689Y153801*
X176061Y154394*
X176461Y154970*
X176885Y155528*
X177334Y156066*
X177807Y156583*
X178302Y157079*
X178820Y157552*
X179357Y158001*
X179915Y158426*
X180491Y158825*
X181084Y159198*
X181694Y159544*
X182318Y159863*
X182956Y160153*
X183607Y160414*
X184268Y160645*
X184939Y160847*
X185619Y161018*
X186306Y161159*
X186998Y161269*
X187694Y161348*
X188393Y161395*
X189094Y161411*
X189795Y161395*
X190494Y161348*
X191191Y161270*
X191883Y161161*
X192569Y161020*
X193249Y160849*
X193920Y160648*
X194581Y160417*
X195232Y160156*
X195870Y159867*
X196494Y159548*
X197104Y159203*
X197698Y158830*
X198274Y158431*
X198832Y158007*
X199370Y157558*
X199888Y157086*
X200383Y156591*
X200857Y156074*
X201306Y155536*
X201731Y154978*
X202130Y154402*
X202503Y153809*
X202849Y153200*
X203168Y152575*
X203458Y151937*
X203719Y151287*
X203951Y150626*
X204153Y149954*
X204325Y149275*
X204466Y148588*
X204576Y147896*
X204654Y147200*
X204702Y146500*
X204719Y145791*
X0Y0D02*
M02*
